<svg xmlns="http://www.w3.org/2000/svg" xmlns:xlink="http://www.w3.org/1999/xlink" preserveAspectRatio="xMidYMid" width="23" height="17" viewBox="0 0 23 17">
  <defs>
    <style>
      .cls-1 {
        fill: #c2b700;
        fill-rule: evenodd;
      }
    </style>
  </defs>
  <path d="M22.788,8.500 L23.010,8.722 L15.000,16.732 L15.000,17.000 L14.733,17.000 L14.722,17.010 L14.712,17.000 L14.000,17.000 L14.000,16.288 L13.990,16.278 L14.000,16.267 L14.000,9.000 L-0.000,9.000 L-0.000,8.000 L14.000,8.000 L14.000,0.733 L13.990,0.722 L14.000,0.712 L14.000,-0.000 L14.712,-0.000 L14.722,-0.010 L14.732,-0.000 L15.000,-0.000 L15.000,0.267 L23.010,8.278 L22.788,8.500 ZM15.000,1.733 L15.000,8.000 L21.267,8.000 L15.000,1.733 ZM15.000,9.000 L15.000,15.267 L21.267,9.000 L15.000,9.000 Z" class="cls-1"/>
</svg>
