<svg xmlns="http://www.w3.org/2000/svg" xmlns:xlink="http://www.w3.org/1999/xlink" preserveAspectRatio="xMidYMid" width="346" height="137" viewBox="0 0 346 137">
  <defs>
    <style>
      .cls-1, .cls-2 {
        font-size: 120px;
      }

      .cls-2 {
        fill: #040406;
        font-family: "KingBasilLite";
      }

      .cls-3 {
        stroke: red;
        stroke-width: 2px;
        fill: none;
        fill-rule: evenodd;
      }
    </style>
  </defs>
  <g>
    <text x="6" y="1" class="cls-1"><tspan class="cls-2">Valera</tspan></text>
    <path d="M2.000,24.000 L28.000,123.000 C28.000,123.000 27.862,125.062 32.000,129.000 C36.138,132.938 38.000,129.000 38.000,129.000 L53.000,81.000 C53.000,81.000 76.709,20.016 77.000,20.000 C77.291,19.984 115.000,71.000 115.000,71.000 L104.000,79.000 C104.000,79.000 102.334,85.393 102.000,78.000 C101.666,70.607 97.000,62.000 97.000,62.000 C97.000,62.000 93.529,60.353 90.000,62.000 C86.471,63.647 83.126,65.596 81.000,70.000 C78.874,74.404 75.242,83.346 75.000,89.000 C74.758,94.654 75.026,103.007 76.000,105.000 C76.974,106.993 80.694,111.210 82.000,111.000 C83.306,110.790 89.198,109.222 91.000,107.000 C92.802,104.778 100.233,98.714 100.000,97.000 C99.767,95.286 100.000,91.000 100.000,91.000 C100.000,91.000 101.284,96.487 101.000,100.000 C100.716,103.513 99.701,112.464 101.000,114.000 C102.299,115.536 102.000,116.000 102.000,116.000 L105.000,118.000 C105.000,118.000 111.672,117.730 113.000,116.000 C114.328,114.270 118.000,110.000 118.000,110.000 L131.000,85.000 L144.000,71.000 C144.000,71.000 151.468,63.416 153.000,61.000 C154.532,58.584 159.554,49.552 161.000,46.000 C162.446,42.448 167.540,26.852 168.000,25.000 C168.460,23.148 167.439,10.356 167.000,9.000 C166.561,7.644 161.000,3.000 161.000,3.000 C161.000,3.000 157.368,2.988 155.000,5.000 C152.632,7.012 145.598,16.751 145.000,19.000 C144.402,21.249 140.980,36.240 140.000,52.000 C139.020,67.760 137.296,92.273 138.000,99.000 C138.704,105.727 142.433,127.480 145.000,131.000 C147.567,134.520 152.000,135.000 152.000,135.000 C152.000,135.000 157.871,131.707 160.000,129.000 C162.129,126.293 167.000,119.000 167.000,119.000 C167.000,119.000 171.525,107.233 173.000,103.000 C174.475,98.767 178.244,90.940 180.000,89.000 C181.756,87.060 190.215,85.471 192.000,85.000 C193.785,84.529 202.085,82.115 203.000,80.000 C203.915,77.885 207.236,74.771 207.000,70.000 C206.764,65.229 205.668,62.885 204.000,62.000 C202.332,61.115 195.913,59.822 192.000,63.000 C188.087,66.178 184.028,74.928 184.000,84.000 C183.972,93.072 185.683,103.527 191.000,107.000 C196.317,110.473 202.286,109.425 205.000,109.000 C207.714,108.575 216.574,101.233 218.000,100.000 C219.426,98.767 224.660,87.268 226.000,84.000 C227.340,80.732 234.000,66.000 234.000,66.000 C234.000,66.000 237.062,58.998 236.000,58.000 C234.938,57.002 234.127,54.162 232.000,54.000 C229.873,53.838 225.509,56.885 225.000,59.000 C224.491,61.115 223.926,66.963 225.000,71.000 C226.074,75.037 231.163,80.420 234.000,82.000 C236.837,83.580 246.702,84.635 250.000,83.000 C253.298,81.365 256.000,79.000 256.000,79.000 C256.000,79.000 254.285,85.651 253.000,93.000 C251.715,100.349 250.601,115.503 251.000,119.000 C251.399,122.497 252.989,127.910 259.000,129.000 C265.011,130.090 269.075,128.871 271.000,126.000 C272.925,123.129 281.000,106.000 281.000,106.000 C281.000,106.000 313.289,74.115 314.000,76.000 C314.711,77.885 315.000,78.000 315.000,78.000 C315.000,78.000 313.203,66.150 310.000,63.000 C306.797,59.850 295.765,59.811 294.000,66.000 C292.235,72.189 286.197,90.691 287.000,99.000 C287.803,107.309 290.067,108.577 294.000,110.000 C297.933,111.423 303.520,104.804 305.000,104.000 C306.480,103.196 313.000,93.000 313.000,93.000 C313.000,93.000 311.706,111.300 314.000,115.000 C316.294,118.700 319.375,117.199 321.000,117.000 C322.625,116.801 332.612,108.905 333.000,107.000 C333.388,105.095 339.748,95.460 341.000,93.000 C342.252,90.540 344.000,74.000 344.000,74.000 " class="cls-3"/>
  </g>
</svg>
