<svg xmlns="http://www.w3.org/2000/svg" xmlns:xlink="http://www.w3.org/1999/xlink" preserveAspectRatio="xMidYMid" width="422" height="142.063" viewBox="0 0 422 142.063">
  <defs>
    <style>
      .cls-1 {
        stroke: red;
        stroke-width: 2px;
        fill: none;
        fill-rule: evenodd;
      }

      .cls-2, .cls-3 {
        font-size: 120px;
      }

      .cls-3 {
        fill: #040406;
        font-family: "KingBasilLite";
      }
    </style>
  </defs>
  <g>
    <path d="M3.000,45.063 C3.000,45.063 12.789,38.119 21.000,37.062 C29.211,36.006 45.216,38.390 49.000,41.063 C52.784,43.735 65.826,50.206 68.000,50.062 C70.174,49.919 81.209,47.800 84.000,43.062 C86.791,38.325 84.687,31.781 84.000,29.063 C83.313,26.344 78.918,22.873 73.000,23.063 C67.082,23.252 61.941,36.003 62.000,40.062 C62.059,44.122 54.443,91.257 54.000,97.063 C53.557,102.868 53.603,131.179 53.000,133.062 C52.397,134.946 52.125,132.927 54.000,136.062 C55.875,139.198 84.000,55.062 84.000,55.062 C84.000,55.062 88.504,62.041 89.000,65.062 C89.496,68.084 84.368,76.146 85.000,85.063 C85.632,93.979 88.639,102.552 91.000,104.063 C93.361,105.573 99.114,107.257 103.000,105.062 C106.886,102.868 113.452,93.876 115.000,90.062 C116.548,86.249 118.998,68.157 117.000,64.063 C115.002,59.968 110.205,51.819 107.000,51.063 C103.795,50.306 96.000,54.063 96.000,54.063 C95.227,56.768 92.592,59.152 98.000,68.062 C103.408,76.973 111.134,82.649 115.000,84.062 C118.866,85.476 127.289,86.127 131.000,84.062 C134.711,81.998 144.991,75.857 147.000,75.063 C149.009,74.268 161.601,62.862 164.000,60.063 C166.399,57.262 173.621,43.395 176.000,35.063 C178.379,26.730 180.007,17.946 179.000,13.062 C177.993,8.179 173.919,3.744 169.000,3.062 C164.081,2.381 160.808,5.898 158.000,12.062 C155.192,18.227 148.923,40.611 148.000,51.063 C147.077,61.514 144.000,119.063 144.000,119.063 L144.000,127.062 L144.000,92.062 C144.000,92.062 145.126,98.262 149.000,92.062 C152.874,85.863 158.441,78.563 163.000,75.063 C167.559,71.562 172.007,72.060 175.000,76.063 C177.993,80.065 179.031,85.692 176.000,89.062 C172.969,92.433 165.262,100.098 161.000,102.062 C156.738,104.027 153.000,106.063 153.000,106.063 C153.000,106.063 158.625,110.184 160.000,114.062 C161.375,117.941 168.712,122.135 172.000,125.063 C175.288,127.990 180.414,131.614 185.000,128.063 C189.586,124.511 192.299,120.619 195.000,114.062 C197.701,107.506 202.115,92.263 203.000,89.062 C203.885,85.863 208.908,70.292 212.000,67.063 C215.092,63.833 220.542,59.906 224.000,62.062 C227.458,64.219 226.223,70.311 228.000,73.063 C229.777,75.814 212.000,74.062 212.000,74.062 C212.000,74.062 201.275,93.122 202.000,96.062 C202.725,99.003 206.908,109.460 211.000,109.063 C215.092,108.665 218.474,105.827 222.000,101.063 C225.526,96.298 227.000,89.062 227.000,89.062 C227.000,89.062 229.701,83.325 228.000,94.063 C226.299,104.800 223.769,110.049 226.000,112.063 C228.231,114.076 230.495,115.276 234.000,115.062 C237.505,114.849 242.901,109.576 246.000,105.062 C249.099,100.549 254.853,84.311 257.000,80.062 C259.147,75.814 268.738,61.452 268.000,62.062 C267.262,62.673 268.081,55.500 264.000,54.063 C259.919,52.625 254.718,54.225 255.000,58.062 C255.282,61.900 255.240,66.698 257.000,71.062 C258.760,75.427 262.033,81.741 266.000,82.063 C269.967,82.384 278.256,84.833 283.000,82.063 C287.744,79.292 288.000,80.062 288.000,80.062 C289.159,83.541 284.440,86.938 283.000,96.062 C281.560,105.187 279.734,118.387 282.000,121.062 C284.266,123.738 285.436,128.522 292.000,128.063 C298.564,127.603 303.388,122.687 306.000,116.063 C308.612,109.438 311.727,91.354 315.000,87.062 C318.273,82.771 324.974,82.195 328.000,83.062 C331.026,83.930 343.903,77.538 345.000,77.062 C346.097,76.587 348.927,70.930 345.000,65.062 C341.073,59.195 337.293,58.225 333.000,60.063 C328.707,61.900 324.636,65.152 323.000,71.062 C321.364,76.973 319.679,93.711 324.000,99.062 C328.321,104.414 332.154,108.687 337.000,109.063 C341.846,109.438 346.696,107.827 352.000,102.062 C357.304,96.298 364.194,80.379 365.000,79.063 C365.806,77.746 367.170,71.017 369.000,72.063 C370.830,73.108 372.533,73.895 374.000,86.062 C375.467,98.230 375.896,108.252 378.000,114.062 C380.104,119.873 380.940,122.000 384.000,123.062 C387.060,124.125 387.597,120.030 391.000,111.062 C394.403,102.095 401.868,79.335 402.000,75.063 C402.132,70.790 400.892,67.133 399.000,66.063 C397.108,64.992 392.824,66.698 394.000,71.062 C395.176,75.427 399.000,82.063 399.000,82.063 C399.000,82.063 405.888,87.876 410.000,87.062 C414.112,86.249 418.932,80.244 420.000,77.062 " class="cls-1"/>
    <text x="-9" y="0.063" class="cls-2"><tspan class="cls-3"> Tokarev</tspan></text>
  </g>
</svg>
