<?xml version="1.0" encoding="UTF-8" standalone="no"?>
<!DOCTYPE svg  PUBLIC '-//W3C//DTD SVG 1.1//EN'  'http://www.w3.org/Graphics/SVG/1.1/DTD/svg11.dtd'>
<svg version="1.1" xmlns="http://www.w3.org/2000/svg">
<defs>
<font id="Akrobat-Bold" horiz-adv-x="0">
<font-face descent="-200" x-height="527" font-weight="700" cap-height="700" underline-position="-150" ascent="800" underline-thickness="50" bbox="-477 -265 810 972" panose-1="0 0 8 0 0 0 0 0 0 0" font-family="Akrobat" unicode-range="U+0020-25CA" units-per-em="1000"/>
<missing-glyph horiz-adv-x="500" d="M333 -18h-166v-33h70l-70 -47v-33h166v33h-102l70 47h32v33zM300 85v-47h-100v47h100zM333 118h-166v-113h166v113zM333 291h-100v-56h34v23h33v-47h-100v80h-33v-113h166v113zM333 413h-33v-66h-133v-34h166v100zM333 473h-166v-33h66v-37h-66v-33h100v70h66v33z M233 570v-36h-33v36h33zM267 604h-100v-104h166v34h-66v70zM333 733h-165v-33h65v-37h-66v-33h166v33h-66v37h66v33zM410 800v-1000h-317v1000h317z"/>
<glyph glyph-name=".notdef" horiz-adv-x="500" d="M333 -18h-166v-33h70l-70 -47v-33h166v33h-102l70 47h32v33zM300 85v-47h-100v47h100zM333 118h-166v-113h166v113zM333 291h-100v-56h34v23h33v-47h-100v80h-33v-113h166v113zM333 413h-33v-66h-133v-34h166v100zM333 473h-166v-33h66v-37h-66v-33h100v70h66v33z M233 570v-36h-33v36h33zM267 604h-100v-104h166v34h-66v70zM333 733h-165v-33h65v-37h-66v-33h166v33h-66v37h66v33zM410 800v-1000h-317v1000h317z"/>
<glyph glyph-name=".null"/>
<glyph glyph-name="nonmarkingreturn" horiz-adv-x="333"/>
<glyph glyph-name="space" horiz-adv-x="215" unicode=" "/>
<glyph glyph-name="exclam" horiz-adv-x="249" unicode="!" d="M125 -11q-28 0 -44.5 16.5t-16.5 44.5q0 27 16.5 43.5t44.5 16.5q27 0 43.5 -16.5t16.5 -43.5q0 -28 -16.5 -44.5t-43.5 -16.5zM76 167v533h97v-533h-97z"/>
<glyph glyph-name="quotedbl" horiz-adv-x="282" unicode='&quot;' d="M169 700h96l-56 -235h-60zM40 700h96l-57 -235h-60z"/>
<glyph glyph-name="numbersign" horiz-adv-x="617" unicode="#" d="M233 253h107l42 183h-107zM88 0l41 179h-119l17 74h118l42 183h-118l16 74h119l44 190h88l-44 -190h107l43 190h89l-43 -190h119l-17 -74h-119l-42 -183h119l-17 -74h-118l-42 -179h-89l41 179h-106l-41 -179h-88z"/>
<glyph glyph-name="dollar" horiz-adv-x="465" unicode="$" d="M435 180q0 -72 -44 -125.5t-122 -64.5v-75h-82v75q-75 13 -117.5 66t-43.5 136h103q1 -53 27.5 -80t74.5 -27q49 0 74.5 26t25.5 70q0 28 -16 52t-42 43t-57 37.5t-62.5 39.5t-57.5 45.5t-42 60t-16 77.5q0 67 40 114t109 59v76h82v-75q72 -11 113 -62.5t43 -130.5h-103 q-1 49 -25 74t-66 25t-66 -22t-24 -60q0 -37 30.5 -67.5t73.5 -54.5t86 -52t73.5 -74t30.5 -106z"/>
<glyph glyph-name="percent" horiz-adv-x="583" unicode="%" d="M464 50q37 0 37 49v104q0 50 -37 50q-38 0 -38 -50v-104q0 -49 38 -49zM464 -9q-47 0 -75 28.5t-28 80.5v102q0 52 28 81t75 29q45 0 73 -29t28 -81v-102q0 -52 -27.5 -80.5t-73.5 -28.5zM112 448q37 0 37 50v103q0 51 -37 51q-39 0 -39 -51v-103q0 -50 39 -50zM20 0 l469 700h73l-468 -700h-74zM112 390q-47 0 -75 28.5t-28 80.5v101q0 52 28 81t75 29q45 0 73 -29t28 -81v-101q0 -52 -27.5 -80.5t-73.5 -28.5z"/>
<glyph glyph-name="ampersand" horiz-adv-x="588" unicode="&amp;" d="M248 78q53 0 104 61q-20 28 -59 81.5t-57 79.5q-69 -71 -69 -131q0 -40 23.5 -65.5t57.5 -25.5zM202 558q0 -41 48 -120q72 68 72 119q0 29 -15.5 49.5t-43.5 20.5t-44.5 -18.5t-16.5 -50.5zM553 0h-104q-8 13 -24 36t-19 28q-74 -77 -164 -77q-72 0 -122 46.5t-50 127.5 q0 64 30.5 114.5t83.5 101.5q-72 115 -72 184q0 63 39 107.5t112 44.5q74 0 112 -44t38 -108q0 -58 -29.5 -104t-82.5 -95l101 -143q18 37 26 68h96q-23 -83 -64 -151q49 -68 93 -136z"/>
<glyph glyph-name="quotesingle" horiz-adv-x="152" unicode="&apos;" d="M40 700h96l-57 -235h-60z"/>
<glyph glyph-name="parenleft" horiz-adv-x="292" unicode="(" d="M246 -122q-82 2 -129 52t-47 135v568q0 85 47 135t129 52v-91q-38 -2 -58.5 -25.5t-20.5 -65.5v-577q0 -87 79 -92v-91z"/>
<glyph glyph-name="parenright" horiz-adv-x="292" unicode=")" d="M46 -122v91q79 5 79 92v577q0 42 -20.5 65.5t-58.5 25.5v91q82 -2 129 -52t47 -135v-568q0 -85 -47 -135t-129 -52z"/>
<glyph glyph-name="asterisk" horiz-adv-x="306" unicode="*" d="M105 484l-53 38l48 67l-77 25l19 62l78 -26v82h65v-82l78 25l20 -61l-78 -25l48 -67l-53 -38l-48 66z"/>
<glyph glyph-name="plus" horiz-adv-x="461" unicode="+" d="M417 355v-90h-142v-146h-90v146h-142v90h142v146h90v-146h142z"/>
<glyph glyph-name="comma" horiz-adv-x="169" unicode="," d="M47 98h96l-57 -234h-60z"/>
<glyph glyph-name="hyphen" horiz-adv-x="321" unicode="-" d="M38 214v86h245v-86h-245z"/>
<glyph glyph-name="period" horiz-adv-x="194" unicode="." d="M97 -11q-27 0 -44 16.5t-17 44.5q0 27 17 43.5t44 16.5t44 -16.5t17 -43.5q0 -28 -17 -44.5t-44 -16.5z"/>
<glyph glyph-name="slash" horiz-adv-x="424" unicode="/" d="M330 813h86l-322 -932h-87z"/>
<glyph glyph-name="zero" horiz-adv-x="471" unicode="0" d="M235 81q44 0 68 27.5t24 77.5v326q0 52 -24 79.5t-68 27.5t-67.5 -27.5t-23.5 -79.5v-326q0 -50 23.5 -77.5t67.5 -27.5zM235 -10q-85 0 -135 52.5t-50 143.5v326q0 91 50 144.5t135 53.5q86 0 136 -53t50 -145v-326q0 -91 -50 -143.5t-136 -52.5z"/>
<glyph glyph-name="one" horiz-adv-x="297" unicode="1" d="M155 700h72v-697h-97v566l-105 -74v110z"/>
<glyph glyph-name="two" horiz-adv-x="421" unicode="2" d="M28 0v67q0 64 27 122.5t65 102t76 83t65 82t27 81.5q0 35 -21 58.5t-59 23.5q-37 0 -59 -25t-23 -72h-93q4 89 50.5 138.5t123.5 49.5q83 0 130 -50t47 -120q0 -52 -26.5 -103.5t-64 -93t-75 -81.5t-64 -85t-26.5 -88h261v-90h-361z"/>
<glyph glyph-name="three" horiz-adv-x="421" unicode="3" d="M229 422q73 -4 112 -53.5t39 -125.5v-46q0 -102 -46 -155t-136 -53q-84 0 -132.5 51.5t-50.5 148.5h96q5 -106 85 -106q45 0 66 27.5t21 87.5v43q0 56 -24.5 80t-72.5 24h-64v68l123 199h-206v89h324v-66z"/>
<glyph glyph-name="four" horiz-adv-x="432" unicode="4" d="M430 263v-89h-78v-174h-95v174h-248v52l145 474h97l-135 -437h142l10 246h84v-246h78z"/>
<glyph glyph-name="five" horiz-adv-x="429" unicode="5" d="M238 475q72 0 115 -52.5t43 -146.5v-71q0 -106 -45.5 -161t-127.5 -55q-80 0 -126.5 50t-49.5 139h98q4 -95 78 -95q38 0 56.5 27.5t18.5 93.5v73q0 56 -17.5 81t-55.5 25q-62 0 -77 -67h-95v384h321v-87h-224v-166q38 28 88 28z"/>
<glyph glyph-name="six" horiz-adv-x="445" unicode="6" d="M310 174v105q0 42 -23 66t-60 24q-35 0 -57 -24t-22 -67v-104q0 -43 22.5 -67t58.5 -24t58.5 24t22.5 67zM243 459q70 0 117.5 -49t47.5 -126v-111q0 -83 -50.5 -133.5t-128.5 -50.5t-128.5 50.5t-50.5 133.5v356q0 82 49.5 132t128.5 50q75 0 123.5 -48.5t52.5 -130.5 h-98q-3 40 -24 62.5t-54 22.5q-36 0 -58 -22.5t-22 -63.5v-107q37 35 95 35z"/>
<glyph glyph-name="seven" horiz-adv-x="370" unicode="7" d="M-4 701h349v-67l-189 -635h-101l180 611h-239v91z"/>
<glyph glyph-name="eight" horiz-adv-x="462" unicode="8" d="M323 187v24q0 51 -24 77.5t-68 26.5t-68 -26.5t-24 -77.5v-24q0 -50 24 -76.5t68 -26.5t68 26.5t24 76.5zM150 522v-15q0 -49 21 -75t60 -26t60 26t21 75v15q0 95 -81 95t-81 -95zM341 365q78 -48 78 -154v-24q0 -92 -50.5 -145t-137.5 -53t-137.5 53t-50.5 145v24 q0 50 20.5 90.5t56.5 63.5q-65 52 -65 144v16q0 86 47.5 136t128.5 50t128.5 -50t47.5 -136v-16q0 -91 -66 -144z"/>
<glyph glyph-name="nine" horiz-adv-x="445" unicode="9" d="M218 331q35 0 57 24t22 67v104q0 43 -22.5 67t-58.5 24t-58.5 -24t-22.5 -67v-105q0 -42 23 -66t60 -24zM216 711q78 0 128.5 -50.5t50.5 -133.5v-356q0 -82 -49.5 -132t-128.5 -50q-75 0 -123.5 48.5t-52.5 130.5h98q3 -40 24 -62.5t54 -22.5q36 0 58 22.5t22 63.5v107 q-37 -35 -95 -35q-70 0 -117.5 49t-47.5 126v111q0 83 50.5 133.5t128.5 50.5z"/>
<glyph glyph-name="colon" horiz-adv-x="182" unicode=":" d="M95 -11q-27 0 -44 16.5t-17 44.5q0 27 17 43.5t44 16.5t44 -16.5t17 -43.5q0 -28 -17 -44.5t-44 -16.5zM95 332q-27 0 -44 16.5t-17 44.5q0 27 17 43.5t44 16.5t44 -16.5t17 -43.5q0 -28 -17 -44.5t-44 -16.5z"/>
<glyph glyph-name="semicolon" horiz-adv-x="178" unicode=";" d="M47 98h96l-57 -234h-60zM92 333q-28 0 -44.5 16.5t-16.5 43.5q0 28 16.5 44.5t44.5 16.5q27 0 43.5 -16.5t16.5 -44.5q0 -27 -16.5 -43.5t-43.5 -16.5z"/>
<glyph glyph-name="less" horiz-adv-x="431" unicode="&lt;" d="M388 488v-91l-246 -94l246 -95v-91l-344 137v97z"/>
<glyph glyph-name="equal" horiz-adv-x="461" unicode="=" d="M43 170v88h374v-88h-374zM43 350v89h374v-89h-374z"/>
<glyph glyph-name="greater" horiz-adv-x="431" unicode="&gt;" d="M43 488l344 -137v-97l-344 -137v91l246 95l-246 94v91z"/>
<glyph glyph-name="question" horiz-adv-x="393" unicode="?" d="M181 -11q-28 0 -44.5 16.5t-16.5 44.5q0 27 16.5 43.5t44.5 16.5q27 0 43.5 -16.5t16.5 -43.5q0 -28 -16.5 -44.5t-43.5 -16.5zM131 167v45q0 50 14.5 89.5t34.5 65.5t40.5 49.5t35 52.5t14.5 64q0 39 -21.5 64t-60.5 25t-62 -26.5t-24 -75.5h-94q5 89 52.5 140.5 t126.5 51.5t129 -49.5t50 -128.5q0 -45 -14.5 -81.5t-35 -62t-40.5 -50t-34.5 -57.5t-14.5 -73v-43h-96z"/>
<glyph glyph-name="at" horiz-adv-x="797" unicode="@" d="M394 176q30 0 47.5 20t17.5 59v107q0 33 -17 55.5t-49 22.5q-59 0 -59 -74v-114q0 -76 60 -76zM407 730q164 0 254 -85.5t90 -244.5v-108q0 -94 -46 -141.5t-112 -47.5q-74 0 -103 59q-33 -64 -108 -64q-59 0 -94.5 39.5t-35.5 112.5v114q0 75 34.5 114t91.5 39 q62 0 92 -50l7 38h62v-258q0 -33 12 -50t42 -18q79 0 79 113v108q0 125 -68 189t-197 64q-135 0 -208 -70t-73 -200v-121q0 -143 74 -220t211 -77q123 0 205 50l40 -62q-93 -65 -241 -65q-175 0 -272 98t-97 276v121q0 164 95.5 255.5t265.5 91.5z"/>
<glyph glyph-name="A" horiz-adv-x="476" unicode="A" d="M167 235h142l-44 188q-15 70 -26 150h-3q-13 -95 -26 -150zM363 0l-33 141h-185l-32 -141h-106l176 700h109l176 -700h-105z"/>
<glyph glyph-name="B" horiz-adv-x="506" unicode="B" d="M257 95q112 0 112 105q0 53 -31 81t-85 28h-82v-214h86zM248 605h-77v-201h80q92 0 92 103q0 98 -95 98zM375 360q45 -19 71 -61t26 -99q0 -93 -55 -146.5t-147 -53.5h-200v700h190q85 0 135.5 -51.5t50.5 -138.5q0 -105 -71 -150z"/>
<glyph glyph-name="C" horiz-adv-x="492" unicode="C" d="M253 -12q-94 0 -148.5 57t-54.5 161v288q0 105 54 162t148 57q96 0 150 -55.5t58 -159.5h-100q-9 119 -109 119q-46 0 -72 -31t-26 -92v-288q0 -61 26.5 -91.5t73.5 -30.5q101 0 111 118h100q-5 -103 -59.5 -158.5t-151.5 -55.5z"/>
<glyph glyph-name="D" horiz-adv-x="510" unicode="D" d="M171 96h74q54 0 83.5 32t29.5 94v258q0 124 -113 124h-74v-508zM70 0v700h174q102 0 159 -57.5t57 -160.5v-262q0 -104 -57 -162t-158 -58h-175z"/>
<glyph glyph-name="E" horiz-adv-x="461" unicode="E" d="M171 95h252v-95h-353v700h343v-95h-242v-203h223v-93h-223v-214z"/>
<glyph glyph-name="F" horiz-adv-x="425" unicode="F" d="M400 605h-229v-209h211v-92h-211v-304h-101v700h330v-95z"/>
<glyph glyph-name="G" horiz-adv-x="506" unicode="G" d="M257 -11q-96 0 -151.5 57t-55.5 162v285q0 105 54.5 161.5t150.5 56.5q94 0 147 -55t57 -158h-100q-6 116 -104 116q-102 0 -102 -122v-284q0 -122 105 -122q107 0 107 117v88h-111v90h210v-178q-1 -102 -56.5 -158t-150.5 -56z"/>
<glyph glyph-name="H" horiz-adv-x="540" unicode="H" d="M369 700h101v-700h-101v307h-198v-307h-101v700h101v-298h198v298z"/>
<glyph glyph-name="I" horiz-adv-x="240" unicode="I" d="M70 700h101v-700h-101v700z"/>
<glyph glyph-name="J" horiz-adv-x="284" unicode="J" d="M0 -116v99q59 0 87.5 29t28.5 100v588h101v-588q0 -111 -55.5 -169.5t-161.5 -58.5z"/>
<glyph glyph-name="K" horiz-adv-x="503" unicode="K" d="M387 0l-171 306l-46 -69v-237h-100v700h100v-304l46 82l140 222h118l-200 -305l229 -395h-116z"/>
<glyph glyph-name="L" horiz-adv-x="410" unicode="L" d="M171 96h232v-96h-333v700h101v-604z"/>
<glyph glyph-name="M" horiz-adv-x="688" unicode="M" d="M515 700h103v-700h-99v273q4 147 8 226l-4 2q-20 -56 -68 -184l-61 -159h-100l-61 159q-48 128 -68 184l-4 -2q6 -146 8 -226v-273h-99v700h103l118 -284q23 -57 51 -139h4q28 82 51 139z"/>
<glyph glyph-name="N" horiz-adv-x="555" unicode="N" d="M385 700h100v-700h-101l-156 343q-43 107 -67 170l-3 -2q12 -120 12 -241v-270h-100v700h101l161 -357q18 -40 64 -154l3 2q-14 121 -14 236v273z"/>
<glyph glyph-name="O" horiz-adv-x="528" unicode="O" d="M264 86q54 0 82 35t28 101v256q0 66 -28 101t-82 35q-110 0 -110 -136v-256q0 -136 110 -136zM264 -13q-100 0 -157 62.5t-57 172.5v256q0 110 57 172.5t157 62.5t157 -62.5t57 -172.5v-256q0 -110 -57 -172.5t-157 -62.5z"/>
<glyph glyph-name="P" horiz-adv-x="501" unicode="P" d="M254 342q113 0 113 132q0 130 -113 130h-83v-262h83zM255 700q103 0 159 -59.5t56 -166.5q0 -110 -56 -169t-159 -59h-84v-246h-101v700h185z"/>
<glyph glyph-name="Q" horiz-adv-x="529" unicode="Q" d="M297 197l56 -67q21 34 21 92v256q0 136 -110 136q-109 0 -109 -136v-256q0 -136 109 -136q13 0 20 1l-47 56zM479 478v-256q0 -112 -58 -173l56 -67l-61 -53l-62 74q-38 -16 -90 -16q-100 0 -157 62.5t-57 172.5v256q0 110 57 172.5t157 62.5q101 0 158 -62.5t57 -172.5z "/>
<glyph glyph-name="R" horiz-adv-x="504" unicode="R" d="M171 604v-254h78q53 0 80.5 33t27.5 96q0 125 -107 125h-79zM375 0l-141 254h-63v-254h-101v700h181q100 0 155 -57.5t55 -161.5q0 -81 -33 -136t-93 -77l152 -268h-112z"/>
<glyph glyph-name="S" horiz-adv-x="465" unicode="S" d="M231 -13q-94 0 -149 55t-56 150h103q1 -53 27.5 -80t74.5 -27q49 0 74.5 26t25.5 70q0 28 -16 52t-42 43t-57 37.5t-62.5 39.5t-57.5 45.5t-42 60t-16 77.5q0 77 52.5 127t139.5 50q89 0 141 -53t54 -143h-103q-1 49 -25 74t-66 25t-66 -22t-24 -60q0 -37 30.5 -67.5 t73.5 -54.5t86 -52t73.5 -74t30.5 -106q0 -82 -54.5 -137.5t-149.5 -55.5z"/>
<glyph glyph-name="T" horiz-adv-x="427" unicode="T" d="M411 700v-96h-146v-604h-103v604h-145v96h394z"/>
<glyph glyph-name="U" horiz-adv-x="530" unicode="U" d="M265 -10q-96 0 -151.5 59.5t-55.5 166.5v484h104v-484q0 -128 103 -128q48 0 75 32t27 96v484h104v-484q0 -107 -55.5 -166.5t-150.5 -59.5z"/>
<glyph glyph-name="V" horiz-adv-x="469" unicode="V" d="M179 0l-172 700h106l84 -386q9 -38 35 -186h4q23 129 35 186l85 386h105l-172 -700h-110z"/>
<glyph glyph-name="W" horiz-adv-x="751" unicode="W" d="M639 700h105l-157 -700h-108l-68 309q-25 110 -33 225h-4q-11 -123 -34 -225l-68 -309h-108l-157 700h105l72 -383q29 -165 32 -186h4q8 56 32 191l70 367h107l70 -367q24 -135 32 -191h4q3 21 32 186z"/>
<glyph glyph-name="X" horiz-adv-x="476" unicode="X" d="M461 0h-112l-110 259l-111 -259h-112l167 363l-157 337h111l102 -237l101 237h111l-157 -337z"/>
<glyph glyph-name="Y" horiz-adv-x="446" unicode="Y" d="M173 0v230l-170 470h105l79 -233q25 -75 35 -110h2l36 112l78 231h106l-170 -470v-230h-101z"/>
<glyph glyph-name="Z" horiz-adv-x="421" unicode="Z" d="M140 96h256v-96h-379v70l250 534h-235v96h359v-69z"/>
<glyph glyph-name="bracketleft" horiz-adv-x="298" unicode="[" d="M252 730h-86v-760h86v-90h-182v940h182v-90z"/>
<glyph glyph-name="backslash" horiz-adv-x="496" unicode="\" d="M130 813l323 -932h-87l-322 932h86z"/>
<glyph glyph-name="bracketright" horiz-adv-x="298" unicode="]" d="M46 -30h86v760h-86v90h182v-940h-182v90z"/>
<glyph glyph-name="asciicircum" horiz-adv-x="334" unicode="^" d="M324 475h-89l-68 146l-68 -146h-89l112 225h90z"/>
<glyph glyph-name="underscore" horiz-adv-x="388" unicode="_" d="M19 -9h350v-93h-350v93z"/>
<glyph glyph-name="a" horiz-adv-x="454" unicode="a" d="M299 157v72h-77q-93 0 -93 -79q0 -36 22 -56.5t62 -20.5q39 0 62.5 23t23.5 61zM225 540q84 0 127.5 -49t43.5 -141v-350h-79l-7 49q-37 -62 -117 -62q-73 0 -117.5 44.5t-44.5 118.5q0 79 51 121t140 42h77v37q0 97 -76 97q-33 0 -54.5 -18t-25.5 -52h-97q4 76 52 119.5 t127 43.5z"/>
<glyph glyph-name="b" horiz-adv-x="467" unicode="b" d="M323 193v145q0 110 -85 110q-40 0 -62.5 -29.5t-22.5 -80.5v-146q0 -55 23 -83.5t62 -28.5q85 0 85 113zM254 540q77 0 122.5 -54t45.5 -148v-145q0 -96 -46 -150.5t-122 -54.5q-71 0 -119 60l-7 -48h-70v724h95v-226q42 42 101 42z"/>
<glyph glyph-name="c" horiz-adv-x="437" unicode="c" d="M224 -11q-83 0 -130.5 50.5t-47.5 142.5v166q0 91 47.5 141.5t130.5 50.5q85 0 132.5 -50t50.5 -142h-98q-3 99 -84 99t-81 -99v-166q0 -100 81 -100q83 0 87 100h97q-2 -92 -51 -142.5t-134 -50.5z"/>
<glyph glyph-name="d" horiz-adv-x="467" unicode="d" d="M315 192v146q0 51 -23 80.5t-63 29.5q-85 0 -85 -110v-145q0 -113 85 -113q39 0 62.5 28.5t23.5 83.5zM315 724h94v-724h-70l-7 49q-47 -61 -119 -61q-75 0 -121 55t-46 150v145q0 95 45 148.5t122 53.5q61 0 102 -43v227z"/>
<glyph glyph-name="e" horiz-adv-x="454" unicode="e" d="M227 449q-84 0 -84 -104v-45h171v45q0 104 -87 104zM320 165h97q-7 -84 -57 -130t-135 -46q-83 0 -131 52t-48 146v157q0 93 48 144.5t132 51.5q86 0 135 -51.5t49 -144.5v-117h-267v-40q0 -105 84 -105q43 0 64.5 19.5t28.5 63.5z"/>
<glyph glyph-name="f" horiz-adv-x="304" unicode="f" d="M265 650q-42 0 -61.5 -22.5t-19.5 -71.5v-29h102v-88h-102v-439h-96v439h-77v88h77v29q0 85 44 133.5t133 48.5h31v-88h-31z"/>
<glyph glyph-name="g" horiz-adv-x="470" unicode="g" d="M231 113q83 0 83 101v132q0 49 -23 75t-60 26q-87 0 -87 -107v-126q0 -101 87 -101zM341 527h71v-554q0 -75 -48 -120.5t-129 -45.5q-79 0 -126 44.5t-50 119.5h95q6 -74 81 -74q37 0 58 20.5t21 55.5v82q-40 -34 -99 -34q-75 0 -122 53t-47 140v126q0 92 46.5 146 t121.5 54t119 -55z"/>
<glyph glyph-name="h" horiz-adv-x="469" unicode="h" d="M271 540q145 0 145 -219v-321h-97v318q0 69 -18 99.5t-56 30.5q-42 0 -66 -32t-24 -90v-326h-97v722h97v-246q43 64 116 64z"/>
<glyph glyph-name="i" horiz-adv-x="213" unicode="i" d="M58 0v527h97v-527h-97zM106 615q-27 0 -44 17.5t-17 43.5q0 27 17 44.5t44 17.5t44.5 -17.5t17.5 -44.5q0 -26 -17.5 -43.5t-44.5 -17.5z"/>
<glyph glyph-name="j" horiz-adv-x="246" unicode="j" d="M-15 -193v93q49 1 71.5 25.5t22.5 74.5v527h96v-523q0 -94 -48 -145t-142 -52zM127 614q-27 0 -44 17t-17 44t17 44.5t44 17.5q26 0 43.5 -17.5t17.5 -44.5q0 -26 -17.5 -43.5t-43.5 -17.5z"/>
<glyph glyph-name="k" horiz-adv-x="441" unicode="k" d="M333 0l-140 241l-39 -42v-199h-96v724h96v-403l150 206h115l-162 -211l187 -316h-111z"/>
<glyph glyph-name="l" horiz-adv-x="209" unicode="l" d="M56 0v724h97v-724h-97z"/>
<glyph glyph-name="m" horiz-adv-x="716" unicode="m" d="M519 540q68 0 106 -53t38 -157v-330h-96v327q0 121 -70 121q-40 0 -64 -32t-24 -90v-326h-96v327q0 121 -72 121q-40 0 -63.5 -32t-23.5 -90v-326h-96v527h69l10 -59q42 72 126 72q86 0 123 -80q41 80 133 80z"/>
<glyph glyph-name="n" horiz-adv-x="469" unicode="n" d="M268 540q70 0 109 -52t39 -157v-331h-97v326q0 64 -18 93t-56 29q-42 0 -66 -32t-24 -90v-326h-97v527h69l10 -59q43 72 131 72z"/>
<glyph glyph-name="o" horiz-adv-x="463" unicode="o" d="M231 82q88 0 88 106v152q0 106 -88 106q-87 0 -87 -106v-152q0 -106 87 -106zM231 -12q-86 0 -135.5 52t-49.5 148v152q0 96 49.5 148t135.5 52q87 0 136.5 -52t49.5 -148v-152q0 -96 -49.5 -148t-136.5 -52z"/>
<glyph glyph-name="p" horiz-adv-x="467" unicode="p" d="M323 190v145q0 113 -85 113q-39 0 -62 -28.5t-23 -83.5v-146q0 -52 22.5 -81.5t62.5 -29.5q85 0 85 111zM254 539q76 0 122 -54.5t46 -149.5v-145q0 -95 -45.5 -148.5t-122.5 -53.5q-61 0 -101 42v-210h-95v708h70l7 -49q20 26 52.5 43t66.5 17z"/>
<glyph glyph-name="q" horiz-adv-x="467" unicode="q" d="M229 79q40 0 63 29.5t23 81.5v146q0 55 -23.5 83.5t-62.5 28.5q-85 0 -85 -113v-145q0 -111 85 -111zM339 528h70v-708h-94v210q-42 -42 -102 -42q-77 0 -122 53.5t-45 148.5v145q0 95 46 149.5t121 54.5q35 0 67.5 -17t51.5 -43z"/>
<glyph glyph-name="r" horiz-adv-x="340" unicode="r" d="M273 539q35 0 55 -8v-96q-28 12 -65 12q-50 0 -79 -32t-29 -90v-325h-97v527h69l11 -61q43 73 135 73z"/>
<glyph glyph-name="s" horiz-adv-x="417" unicode="s" d="M214 -13q-87 0 -137.5 49.5t-51.5 125.5h96q1 -38 24 -61.5t67 -23.5q38 0 59 17.5t21 48.5q0 25 -19 43t-48 28.5t-62.5 25.5t-62.5 31.5t-48 48t-19 73.5q0 67 46.5 107t123.5 40q82 0 127 -46t48 -122h-95q-2 80 -80 80q-34 0 -54 -16t-20 -44q0 -27 27 -45.5t65 -32 t76 -31t65 -53.5t27 -88q0 -70 -47 -112.5t-128 -42.5z"/>
<glyph glyph-name="t" horiz-adv-x="316" unicode="t" d="M259 85h32v-91h-37q-78 0 -122.5 47t-44.5 129v269h-74v88h74v125h96v-125h98v-88h-98v-270q0 -84 76 -84z"/>
<glyph glyph-name="u" horiz-adv-x="469" unicode="u" d="M314 527h97v-527h-69l-10 59q-43 -72 -131 -72q-70 0 -109 52t-39 157v331h97v-326q0 -64 18 -93t56 -29q42 0 66 32t24 90v326z"/>
<glyph glyph-name="v" horiz-adv-x="406" unicode="v" d="M300 527h102l-145 -527h-108l-145 527h103l58 -237q28 -131 36 -174h5q8 43 36 174z"/>
<glyph glyph-name="w" horiz-adv-x="636" unicode="w" d="M532 527h100l-125 -527h-105l-46 191q-28 124 -36 208h-4q-7 -84 -36 -208l-45 -191h-105l-126 527h101l47 -236q19 -102 30 -181h4q12 87 33 185l48 222h103l48 -222q25 -130 33 -185h4q6 50 30 181z"/>
<glyph glyph-name="x" horiz-adv-x="407" unicode="x" d="M408 0h-110l-94 187l-95 -187h-110l146 264l-135 263h107l87 -179l86 179h107l-133 -263z"/>
<glyph glyph-name="y" horiz-adv-x="417" unicode="y" d="M313 527h100l-169 -568q-21 -72 -53.5 -110.5t-87.5 -38.5h-52v94h33q28 0 42 17.5t25 54.5l23 79l-170 472h102l109 -334z"/>
<glyph glyph-name="z" horiz-adv-x="366" unicode="z" d="M132 89h216v-89h-338v65l207 373h-191v89h313v-64z"/>
<glyph glyph-name="braceleft" horiz-adv-x="338" unicode="{" d="M212 491q0 -90 -65 -139q65 -49 65 -139v-156q0 -39 22 -62t59 -23v-92q-80 0 -128 50.5t-48 135.5v157q0 36 -19 57t-52 25v94q33 4 52 25t19 58v152q0 85 48 135.5t128 50.5v-92q-37 0 -59 -23t-22 -62v-152z"/>
<glyph glyph-name="bar" horiz-adv-x="210" unicode="|" d="M56 800h98v-892h-98v892z"/>
<glyph glyph-name="braceright" horiz-adv-x="338" unicode="}" d="M221 478q0 -36 19 -57t52 -25v-94q-33 -4 -52 -25t-19 -58v-152q0 -85 -48 -135.5t-128 -50.5v92q37 0 59 23t22 62v152q0 90 65 139q-65 49 -65 139v156q0 39 -22 62t-59 23v92q80 0 128 -50.5t48 -135.5v-157z"/>
<glyph glyph-name="asciitilde" horiz-adv-x="470" unicode="~" d="M380 363l52 -62q-41 -62 -104 -62q-34 0 -95 23.5t-83 23.5q-36 0 -62 -37l-50 63q43 61 103 61q34 0 94.5 -24t83.5 -24q36 0 61 38z"/>
<glyph glyph-name="exclamdown" horiz-adv-x="249" unicode="¡" d="M76 360h97v-540h-97v540zM125 538q27 0 43.5 -16.5t16.5 -43.5q0 -28 -16.5 -44.5t-43.5 -16.5q-28 0 -44.5 16.5t-16.5 44.5q0 27 16.5 43.5t44.5 16.5z"/>
<glyph glyph-name="cent" horiz-adv-x="434" unicode="¢" d="M406 182q-1 -80 -39.5 -129.5t-105.5 -60.5v-66h-79v67q-64 11 -100 60t-36 129v163q0 79 36 128t100 60v66h79v-65q68 -11 105 -59.5t38 -129.5h-97q-1 99 -83 99q-80 0 -80 -99v-163q0 -100 80 -100q82 0 85 100h97z"/>
<glyph glyph-name="sterling" horiz-adv-x="478" unicode="£" d="M167 94h279v-94h-417v84q62 14 62 95v125h-63v86h63v128q0 87 47.5 140t124.5 53q78 0 126.5 -53t52.5 -146h-98q-8 103 -81 103q-34 0 -54 -25t-20 -71v-129h168v-86h-168v-122q0 -51 -22 -88z"/>
<glyph glyph-name="currency" horiz-adv-x="468" unicode="¤" d="M234 199q36 0 56.5 23t20.5 67v69q0 44 -20.5 67t-56.5 23t-56.5 -23t-20.5 -67v-69q0 -44 20.5 -67t56.5 -23zM93 85l-58 43l52 68q-21 39 -21 92v71q0 53 21 92l-52 67l57 44l44 -57q40 29 98 29t98 -29l44 57l57 -44l-52 -67q21 -39 21 -92v-71q0 -53 -21 -93l52 -67 l-57 -43l-45 57q-40 -29 -97 -29t-97 29z"/>
<glyph glyph-name="yen" horiz-adv-x="446" unicode="¥" d="M444 700l-147 -407h133v-63h-156v-61h156v-64h-156v-105h-101v105h-157v64h157v61h-157v63h134l-147 407h105l79 -233q25 -75 35 -110h2l36 112l78 231h106z"/>
<glyph glyph-name="brokenbar" horiz-adv-x="190" unicode="¦" d="M46 -82v305h98v-305h-98zM46 495v305h98v-305h-98z"/>
<glyph glyph-name="section" horiz-adv-x="422" unicode="§" d="M236 270q28 4 43.5 21t15.5 40q0 32 -25 53t-72 40q-32 0 -54 -17.5t-22 -47.5q0 -29 27.5 -49t86.5 -40zM326 215q58 -46 58 -114q0 -71 -46.5 -113t-125.5 -42q-85 0 -133.5 49t-49.5 125h96q1 -37 22 -60.5t63 -23.5q37 0 57 17t20 49q0 28 -27 48.5t-65.5 35.5 t-76.5 33.5t-65 53t-27 83.5q0 86 75 125q-59 43 -59 114q0 66 45 104.5t119 38.5q79 0 122 -45t46 -121h-94q-3 78 -74 78q-32 0 -50 -15.5t-18 -40.5q0 -26 26 -45.5t63.5 -34.5t75 -34t63.5 -55.5t26 -88.5q0 -81 -66 -121z"/>
<glyph glyph-name="copyright" horiz-adv-x="696" unicode="©" d="M347 148q-60 0 -95 37.5t-35 103.5v125q0 66 35 103t95 37q61 0 95 -36.5t35 -103.5h-71q-1 70 -58 70q-59 0 -59 -70v-125q0 -70 59 -70q58 0 61 70h71q-1 -66 -36.5 -103.5t-96.5 -37.5zM349 55q111 0 169.5 67t58.5 192v81q0 123 -58.5 188.5t-169.5 65.5 q-112 0 -171 -65.5t-59 -188.5v-81q0 -126 59 -192.5t171 -66.5zM349 -9q-141 0 -220 85t-79 238v81q0 151 79 234.5t220 83.5q140 0 218.5 -83.5t78.5 -234.5v-81q0 -153 -78.5 -238t-218.5 -85z"/>
<glyph glyph-name="guillemotleft" horiz-adv-x="469" unicode="«" d="M335 87l-117 152v36l117 152h95l-129 -170l129 -170h-95zM155 87l-117 152v36l117 152h95l-129 -170l129 -170h-95z"/>
<glyph glyph-name="logicalnot" horiz-adv-x="470" unicode="¬" d="M430 354v-163h-88v73h-294v90h382z"/>
<glyph glyph-name="registered" horiz-adv-x="459" unicode="®" d="M207 579v-81h28q37 0 37 41q0 40 -37 40h-28zM312 539q0 -57 -44 -73l53 -96h-44l-49 90h-21v-90h-40v248h68q37 0 57 -20.5t20 -58.5zM374 468v57q0 74 -36.5 113t-104.5 39q-69 0 -105.5 -38.5t-36.5 -113.5v-57q0 -78 36.5 -118.5t105.5 -40.5q68 0 104.5 40.5 t36.5 118.5zM233 713q84 0 131 -49t47 -138v-58q0 -93 -47 -143.5t-131 -50.5q-85 0 -132.5 50.5t-47.5 143.5v58q0 89 47.5 138t132.5 49z"/>
<glyph glyph-name="degree" horiz-adv-x="313" unicode="°" d="M93 579q0 -31 17.5 -49.5t46.5 -18.5q28 0 45.5 18.5t17.5 49.5t-17.5 49.5t-45.5 18.5q-29 0 -46.5 -18.5t-17.5 -49.5zM26 579q0 60 36 96.5t95 36.5t94.5 -36.5t35.5 -96.5t-35.5 -96.5t-94.5 -36.5t-95 36.5t-36 96.5z"/>
<glyph glyph-name="plusminus" horiz-adv-x="470" unicode="±" d="M48 53v85h374v-85h-374zM280 408h142v-88h-142v-137h-90v137h-142v88h142v137h90v-137z"/>
<glyph glyph-name="paragraph" horiz-adv-x="599" unicode="¶" d="M529 702v-794h-98v702h-124v-702h-98v475q-73 0 -118 43t-45 117q0 73 45 116t118 43h320z"/>
<glyph glyph-name="periodcentered" horiz-adv-x="194" unicode="·" d="M97 197q-27 0 -44 16.5t-17 44.5q0 27 17 43.5t44 16.5t44 -16.5t17 -43.5q0 -28 -17 -44.5t-44 -16.5z"/>
<glyph glyph-name="guillemotright" horiz-adv-x="469" unicode="»" d="M314 87h-95l129 170l-129 170h95l117 -152v-36zM134 87h-95l129 170l-129 170h95l117 -152v-36z"/>
<glyph glyph-name="questiondown" horiz-adv-x="393" unicode="¿" d="M256 359v-45q0 -50 -14.5 -89.5t-35 -65t-40.5 -49t-34.5 -53t-14.5 -64.5q0 -39 22 -64t61 -25t61.5 27t23.5 76h95q-5 -89 -53 -140.5t-127 -51.5t-129 49t-50 129q0 44 14.5 80.5t34.5 62t40.5 50t35 57.5t14.5 73v43h96zM207 537q27 0 44 -16.5t17 -43.5t-17 -44 t-44 -17t-44 17t-17 44t17 43.5t44 16.5z"/>
<glyph glyph-name="Agrave" horiz-adv-x="476" unicode="À" d="M167 235h142l-44 188q-15 70 -26 150h-3q-13 -95 -26 -150zM363 0l-33 141h-185l-32 -141h-106l176 700h109l176 -700h-105zM302 768h-76l-109 125h92z"/>
<glyph glyph-name="Aacute" horiz-adv-x="476" unicode="Á" d="M167 235h142l-44 188q-15 70 -26 150h-3q-13 -95 -26 -150zM363 0l-33 141h-185l-32 -141h-106l176 700h109l176 -700h-105zM364 893l-109 -125h-76l93 125h92z"/>
<glyph glyph-name="Acircumflex" horiz-adv-x="476" unicode="Â" d="M167 235h142l-44 188q-15 70 -26 150h-3q-13 -95 -26 -150zM363 0l-33 141h-185l-32 -141h-106l176 700h109l176 -700h-105zM238 838l-51 -70h-72l81 125h83l81 -125h-72z"/>
<glyph glyph-name="Atilde" horiz-adv-x="476" unicode="Ã" d="M167 235h142l-44 188q-15 70 -26 150h-3q-13 -95 -26 -150zM363 0l-33 141h-185l-32 -141h-106l176 700h109l176 -700h-105zM208 818q-20 0 -24 -27h-65q2 43 23.5 67.5t55.5 24.5q24 0 47 -15t31 -15q21 0 26 27h63q-4 -43 -25 -67.5t-54 -24.5q-23 0 -46 15t-32 15z "/>
<glyph glyph-name="Adieresis" horiz-adv-x="476" unicode="Ä" d="M167 235h142l-44 188q-15 70 -26 150h-3q-13 -95 -26 -150zM363 0l-33 141h-185l-32 -141h-106l176 700h109l176 -700h-105zM310 782q-23 0 -37 13.5t-14 35.5q0 23 14 36.5t37 13.5t36.5 -13.5t13.5 -36.5q0 -22 -13.5 -35.5t-36.5 -13.5zM164 782q-23 0 -36.5 13.5 t-13.5 35.5q0 23 13.5 36.5t36.5 13.5t36.5 -13.5t13.5 -36.5q0 -22 -13.5 -35.5t-36.5 -13.5z"/>
<glyph glyph-name="Aring" horiz-adv-x="476" unicode="Å" d="M167 235h142l-44 188q-15 70 -26 150h-3q-13 -95 -26 -150zM363 0l-33 141h-185l-32 -141h-106l176 700h109l176 -700h-105zM238 874q-14 0 -23 -9t-9 -23t9 -23t23 -9t23 9t9 23t-9 23t-23 9zM238 764q-36 0 -58 22t-22 57t22 56t58 21q37 0 59 -21t22 -56t-22 -57 t-59 -22z"/>
<glyph glyph-name="AE" horiz-adv-x="703" unicode="Æ" d="M205 245h126v344h-3q-24 -84 -49 -156zM432 95h233v-95h-334v151h-163l-59 -151h-109l283 700h372v-95h-223v-203h204v-93h-204v-214z"/>
<glyph glyph-name="Ccedilla" horiz-adv-x="492" unicode="Ç" d="M464 202q-4 -94 -50 -148.5t-127 -63.5l-11 -39q3 1 12 1q31 0 51.5 -19.5t20.5 -51.5q0 -40 -28 -63.5t-73 -23.5q-39 0 -67 22.5t-32 59.5h60q10 -27 40 -27q39 0 39 34q0 32 -36 32q-19 0 -33 -8l-19 18l19 64q-84 7 -132 63.5t-48 153.5v288q0 105 54 162t148 57 q96 0 150 -55.5t58 -159.5h-100q-9 119 -109 119q-46 0 -72 -31t-26 -92v-288q0 -61 26.5 -91.5t73.5 -30.5q101 0 111 118h100z"/>
<glyph glyph-name="Egrave" horiz-adv-x="461" unicode="È" d="M171 95h252v-95h-353v700h343v-95h-242v-203h223v-93h-223v-214zM304 768h-76l-109 125h92z"/>
<glyph glyph-name="Eacute" horiz-adv-x="461" unicode="É" d="M171 95h252v-95h-353v700h343v-95h-242v-203h223v-93h-223v-214zM366 893l-109 -125h-76l93 125h92z"/>
<glyph glyph-name="Ecircumflex" horiz-adv-x="461" unicode="Ê" d="M171 95h252v-95h-353v700h343v-95h-242v-203h223v-93h-223v-214zM240 838l-51 -70h-72l81 125h83l81 -125h-72z"/>
<glyph glyph-name="Edieresis" horiz-adv-x="461" unicode="Ë" d="M171 95h252v-95h-353v700h343v-95h-242v-203h223v-93h-223v-214zM312 782q-23 0 -37 13.5t-14 35.5q0 23 14 36.5t37 13.5t36.5 -13.5t13.5 -36.5q0 -22 -13.5 -35.5t-36.5 -13.5zM166 782q-23 0 -36.5 13.5t-13.5 35.5q0 23 13.5 36.5t36.5 13.5t36.5 -13.5t13.5 -36.5 q0 -22 -13.5 -35.5t-36.5 -13.5z"/>
<glyph glyph-name="Igrave" horiz-adv-x="240" unicode="Ì" d="M70 700h101v-700h-101v700zM187 768h-76l-109 125h92z"/>
<glyph glyph-name="Iacute" horiz-adv-x="240" unicode="Í" d="M70 700h101v-700h-101v700zM64 768l93 125h92l-109 -125h-76z"/>
<glyph glyph-name="Icircumflex" horiz-adv-x="240" unicode="Î" d="M70 0v700h101v-700h-101zM164 893l81 -125h-72l-50 70l-51 -70h-72l81 125h83z"/>
<glyph glyph-name="Idieresis" horiz-adv-x="250" unicode="Ï" d="M73 700h101v-700h-101v700zM192 782q-23 0 -36.5 13.5t-13.5 35.5q0 23 13.5 36.5t36.5 13.5t37 -13.5t14 -36.5q0 -22 -14 -35.5t-37 -13.5zM58 782q-23 0 -36.5 13.5t-13.5 35.5q0 23 13.5 36.5t36.5 13.5t36.5 -13.5t13.5 -36.5q0 -22 -13.5 -35.5t-36.5 -13.5z"/>
<glyph glyph-name="Eth" horiz-adv-x="521" unicode="Ð" d="M368 212v278q0 114 -113 114h-74v-213h84v-69h-84v-226h74q113 0 113 116zM250 700q103 0 162 -55t59 -153v-282q0 -100 -59 -155t-161 -55h-171v322h-71v69h71v309h170z"/>
<glyph glyph-name="Ntilde" horiz-adv-x="555" unicode="Ñ" d="M385 700h100v-700h-101l-156 343q-43 107 -67 170l-3 -2q12 -120 12 -241v-270h-100v700h101l161 -357q18 -40 64 -154l3 2q-14 121 -14 236v273zM248 818q-20 0 -24 -27h-65q2 43 23.5 67.5t55.5 24.5q24 0 47 -15t31 -15q21 0 26 27h63q-4 -43 -25 -67.5t-54 -24.5 q-23 0 -46 15t-32 15z"/>
<glyph glyph-name="Ograve" horiz-adv-x="528" unicode="Ò" d="M264 86q54 0 82 35t28 101v256q0 66 -28 101t-82 35q-110 0 -110 -136v-256q0 -136 110 -136zM264 -13q-100 0 -157 62.5t-57 172.5v256q0 110 57 172.5t157 62.5t157 -62.5t57 -172.5v-256q0 -110 -57 -172.5t-157 -62.5zM328 768h-76l-109 125h92z"/>
<glyph glyph-name="Oacute" horiz-adv-x="528" unicode="Ó" d="M264 86q54 0 82 35t28 101v256q0 66 -28 101t-82 35q-110 0 -110 -136v-256q0 -136 110 -136zM264 -13q-100 0 -157 62.5t-57 172.5v256q0 110 57 172.5t157 62.5t157 -62.5t57 -172.5v-256q0 -110 -57 -172.5t-157 -62.5zM205 768l93 125h92l-109 -125h-76z"/>
<glyph glyph-name="Ocircumflex" horiz-adv-x="528" unicode="Ô" d="M374 222v256q0 66 -28 101t-82 35q-110 0 -110 -136v-256q0 -136 110 -136q54 0 82 35t28 101zM264 713q100 0 157 -62.5t57 -172.5v-256q0 -110 -57 -172.5t-157 -62.5t-157 62.5t-57 172.5v256q0 110 57 172.5t157 62.5zM264 838l-51 -70h-72l81 125h83l81 -125h-72z "/>
<glyph glyph-name="Otilde" horiz-adv-x="528" unicode="Õ" d="M264 86q54 0 82 35t28 101v256q0 66 -28 101t-82 35q-110 0 -110 -136v-256q0 -136 110 -136zM264 -13q-100 0 -157 62.5t-57 172.5v256q0 110 57 172.5t157 62.5t157 -62.5t57 -172.5v-256q0 -110 -57 -172.5t-157 -62.5zM234 818q-20 0 -24 -27h-65q2 43 23.5 67.5 t55.5 24.5q24 0 47 -15t31 -15q21 0 26 27h63q-4 -43 -25 -67.5t-54 -24.5q-23 0 -46 15t-32 15z"/>
<glyph glyph-name="Odieresis" horiz-adv-x="528" unicode="Ö" d="M264 86q54 0 82 35t28 101v256q0 66 -28 101t-82 35q-110 0 -110 -136v-256q0 -136 110 -136zM264 -13q-100 0 -157 62.5t-57 172.5v256q0 110 57 172.5t157 62.5t157 -62.5t57 -172.5v-256q0 -110 -57 -172.5t-157 -62.5zM336 782q-23 0 -37 13.5t-14 35.5q0 23 14 36.5 t37 13.5t36.5 -13.5t13.5 -36.5q0 -22 -13.5 -35.5t-36.5 -13.5zM190 782q-23 0 -36.5 13.5t-13.5 35.5q0 23 13.5 36.5t36.5 13.5t36.5 -13.5t13.5 -36.5q0 -22 -13.5 -35.5t-36.5 -13.5z"/>
<glyph glyph-name="multiply" horiz-adv-x="463" unicode="×" d="M102 107l-63 64l129 129l-128 128l62 64l130 -129l129 129l63 -64l-128 -128l128 -129l-63 -64l-129 129z"/>
<glyph glyph-name="Oslash" horiz-adv-x="526" unicode="Ø" d="M371 222v256q0 34 -7 58l-135 -446q13 -4 34 -4q53 0 80.5 35t27.5 101zM155 222q0 -43 10 -70l139 455q-17 7 -41 7q-108 0 -108 -136v-256zM403 665q72 -63 72 -187v-256q0 -109 -56.5 -171.5t-155.5 -62.5q-33 0 -63 8l-18 -60h-82l29 94q-79 62 -79 192v256 q0 109 56.5 171.5t156.5 62.5q37 0 69 -9l19 61h82z"/>
<glyph glyph-name="Ugrave" horiz-adv-x="530" unicode="Ù" d="M265 -10q-96 0 -151.5 59.5t-55.5 166.5v484h104v-484q0 -128 103 -128q48 0 75 32t27 96v484h104v-484q0 -107 -55.5 -166.5t-150.5 -59.5zM330 768h-76l-109 125h92z"/>
<glyph glyph-name="Uacute" horiz-adv-x="530" unicode="Ú" d="M265 -10q-96 0 -151.5 59.5t-55.5 166.5v484h104v-484q0 -128 103 -128q48 0 75 32t27 96v484h104v-484q0 -107 -55.5 -166.5t-150.5 -59.5zM207 768l93 125h92l-109 -125h-76z"/>
<glyph glyph-name="Ucircumflex" horiz-adv-x="530" unicode="Û" d="M367 700h104v-484q0 -107 -55.5 -166.5t-150.5 -59.5q-96 0 -151.5 59.5t-55.5 166.5v484h104v-484q0 -128 103 -128q48 0 75 32t27 96v484zM266 838l-51 -70h-72l81 125h83l81 -125h-72z"/>
<glyph glyph-name="Udieresis" horiz-adv-x="530" unicode="Ü" d="M265 -10q-96 0 -151.5 59.5t-55.5 166.5v484h104v-484q0 -128 103 -128q48 0 75 32t27 96v484h104v-484q0 -107 -55.5 -166.5t-150.5 -59.5zM338 782q-23 0 -37 13.5t-14 35.5q0 23 14 36.5t37 13.5t36.5 -13.5t13.5 -36.5q0 -22 -13.5 -35.5t-36.5 -13.5zM192 782 q-23 0 -36.5 13.5t-13.5 35.5q0 23 13.5 36.5t36.5 13.5t36.5 -13.5t13.5 -36.5q0 -22 -13.5 -35.5t-36.5 -13.5z"/>
<glyph glyph-name="Yacute" horiz-adv-x="446" unicode="Ý" d="M173 0v230l-170 470h105l79 -233q25 -75 35 -110h2l36 112l78 231h106l-170 -470v-230h-101zM165 768l93 125h92l-109 -125h-76z"/>
<glyph glyph-name="Thorn" horiz-adv-x="489" unicode="Þ" d="M254 230q113 0 113 133q0 130 -113 130h-83v-263h83zM255 589q103 0 159 -59.5t56 -166.5q0 -110 -56 -169.5t-159 -59.5h-84v-134h-101v700h101v-111h84z"/>
<glyph glyph-name="germandbls" horiz-adv-x="479" unicode="ß" d="M356 365q44 -21 69.5 -64.5t25.5 -99.5q0 -93 -54 -147t-143 -54h-47v96h34q106 0 106 106q0 112 -104 112h-36v93h27q92 0 92 104q0 107 -84 107t-84 -111v-507h-100v507q0 95 49 150.5t135 55.5t135.5 -55.5t49.5 -147.5q0 -101 -71 -145z"/>
<glyph glyph-name="agrave" horiz-adv-x="454" unicode="à" d="M299 157v72h-77q-93 0 -93 -79q0 -36 22 -56.5t62 -20.5q39 0 62.5 23t23.5 61zM225 540q84 0 127.5 -49t43.5 -141v-350h-79l-7 49q-37 -62 -117 -62q-73 0 -117.5 44.5t-44.5 118.5q0 79 51 121t140 42h77v37q0 97 -76 97q-33 0 -54.5 -18t-25.5 -52h-97q4 76 52 119.5 t127 43.5zM290 610h-76l-89 124h90z"/>
<glyph glyph-name="aacute" horiz-adv-x="454" unicode="á" d="M299 157v72h-77q-93 0 -93 -79q0 -36 22 -56.5t62 -20.5q39 0 62.5 23t23.5 61zM225 540q84 0 127.5 -49t43.5 -141v-350h-79l-7 49q-37 -62 -117 -62q-73 0 -117.5 44.5t-44.5 118.5q0 79 51 121t140 42h77v37q0 97 -76 97q-33 0 -54.5 -18t-25.5 -52h-97q4 76 52 119.5 t127 43.5zM331 734l-89 -124h-76l75 124h90z"/>
<glyph glyph-name="acircumflex" horiz-adv-x="454" unicode="â" d="M299 157v72h-77q-93 0 -93 -79q0 -36 22 -56.5t62 -20.5q39 0 62.5 23t23.5 61zM225 540q84 0 127.5 -49t43.5 -141v-350h-79l-7 49q-37 -62 -117 -62q-73 0 -117.5 44.5t-44.5 118.5q0 79 51 121t140 42h77v37q0 97 -76 97q-33 0 -54.5 -18t-25.5 -52h-97q4 76 52 119.5 t127 43.5zM225 679l-51 -70h-72l81 125h83l81 -125h-72z"/>
<glyph glyph-name="atilde" horiz-adv-x="454" unicode="ã" d="M299 157v72h-77q-93 0 -93 -79q0 -36 22 -56.5t62 -20.5q39 0 62.5 23t23.5 61zM225 540q84 0 127.5 -49t43.5 -141v-350h-79l-7 49q-37 -62 -117 -62q-73 0 -117.5 44.5t-44.5 118.5q0 79 51 121t140 42h77v37q0 97 -76 97q-33 0 -54.5 -18t-25.5 -52h-97q4 76 52 119.5 t127 43.5zM191 648q-19 0 -24 -27h-65q2 43 23.5 67.5t55.5 24.5q23 0 46 -15t32 -15q21 0 26 27h63q-4 -43 -25 -67.5t-54 -24.5q-23 0 -46 15t-32 15z"/>
<glyph glyph-name="adieresis" horiz-adv-x="454" unicode="ä" d="M299 157v72h-77q-93 0 -93 -79q0 -36 22 -56.5t62 -20.5q39 0 62.5 23t23.5 61zM225 540q84 0 127.5 -49t43.5 -141v-350h-79l-7 49q-37 -62 -117 -62q-73 0 -117.5 44.5t-44.5 118.5q0 79 51 121t140 42h77v37q0 97 -76 97q-33 0 -54.5 -18t-25.5 -52h-97q4 76 52 119.5 t127 43.5zM295 622q-23 0 -37 13.5t-14 36.5t14 36.5t37 13.5t36.5 -14t13.5 -36t-13.5 -36t-36.5 -14zM155 622q-23 0 -36.5 14t-13.5 36t13.5 36t36.5 14t36.5 -14t13.5 -36t-13.5 -36t-36.5 -14z"/>
<glyph glyph-name="aring" horiz-adv-x="454" unicode="å" d="M299 157v72h-77q-93 0 -93 -79q0 -36 22 -56.5t62 -20.5q39 0 62.5 23t23.5 61zM225 540q84 0 127.5 -49t43.5 -141v-350h-79l-7 49q-37 -62 -117 -62q-73 0 -117.5 44.5t-44.5 118.5q0 79 51 121t140 42h77v37q0 97 -76 97q-33 0 -54.5 -18t-25.5 -52h-97q4 76 52 119.5 t127 43.5zM225 716q-14 0 -23 -9t-9 -23t9 -23t23 -9t23 9t9 23t-9 23t-23 9zM225 606q-36 0 -58 22t-22 57t22 56t58 21q37 0 59 -21t22 -56t-22 -57t-59 -22z"/>
<glyph glyph-name="ae" horiz-adv-x="691" unicode="æ" d="M295 156v72h-70q-96 0 -96 -78q0 -36 22 -56.5t63 -20.5q38 0 59.5 22.5t21.5 60.5zM391 345v-41h163v41q0 104 -82 104q-81 0 -81 -104zM557 169h97q-4 -85 -52.5 -132.5t-130.5 -47.5q-83 0 -132 64q-42 -64 -149 -64q-72 0 -115.5 44.5t-43.5 117.5q0 79 51.5 119 t142.5 40h70v45q0 91 -72 91q-34 0 -55 -17.5t-25 -51.5h-97q4 76 52 119.5t127 43.5t122 -60q45 60 124 60q83 0 131 -51.5t48 -144.5v-112h-259v-45q0 -105 81 -105q40 0 60.5 21t24.5 66z"/>
<glyph glyph-name="ccedilla" horiz-adv-x="437" unicode="ç" d="M409 182q-2 -84 -43.5 -133.5t-113.5 -57.5l-11 -40q3 1 12 1q31 0 51.5 -19.5t20.5 -51.5q0 -40 -28 -63.5t-73 -23.5q-39 0 -67 22.5t-32 59.5h60q10 -27 40 -27q39 0 39 34q0 32 -36 32q-19 0 -33 -8l-19 18l19 66q-70 8 -109.5 58t-39.5 133v166q0 91 47.5 141.5 t130.5 50.5q85 0 132.5 -50t50.5 -142h-98q-3 99 -84 99t-81 -99v-166q0 -100 81 -100q83 0 87 100h97z"/>
<glyph glyph-name="egrave" horiz-adv-x="454" unicode="è" d="M227 449q-84 0 -84 -104v-45h171v45q0 104 -87 104zM320 165h97q-7 -84 -57 -130t-135 -46q-83 0 -131 52t-48 146v157q0 93 48 144.5t132 51.5q86 0 135 -51.5t49 -144.5v-117h-267v-40q0 -105 84 -105q43 0 64.5 19.5t28.5 63.5zM291 608h-76l-89 124h90z"/>
<glyph glyph-name="eacute" horiz-adv-x="454" unicode="é" d="M227 449q-84 0 -84 -104v-45h171v45q0 104 -87 104zM320 165h97q-7 -84 -57 -130t-135 -46q-83 0 -131 52t-48 146v157q0 93 48 144.5t132 51.5q86 0 135 -51.5t49 -144.5v-117h-267v-40q0 -105 84 -105q43 0 64.5 19.5t28.5 63.5zM332 732l-89 -124h-76l75 124h90z"/>
<glyph glyph-name="ecircumflex" horiz-adv-x="454" unicode="ê" d="M227 449q-84 0 -84 -104v-45h171v45q0 104 -87 104zM320 165h97q-7 -84 -57 -130t-135 -46q-83 0 -131 52t-48 146v157q0 93 48 144.5t132 51.5q86 0 135 -51.5t49 -144.5v-117h-267v-40q0 -105 84 -105q43 0 64.5 19.5t28.5 63.5zM226 677l-51 -70h-72l81 125h83 l81 -125h-72z"/>
<glyph glyph-name="edieresis" horiz-adv-x="454" unicode="ë" d="M227 449q-84 0 -84 -104v-45h171v45q0 104 -87 104zM320 165h97q-7 -84 -57 -130t-135 -46q-83 0 -131 52t-48 146v157q0 93 48 144.5t132 51.5q86 0 135 -51.5t49 -144.5v-117h-267v-40q0 -105 84 -105q43 0 64.5 19.5t28.5 63.5zM296 620q-23 0 -37 13.5t-14 36.5 t14 36.5t37 13.5q22 0 36 -14t14 -36t-14 -36t-36 -14zM156 620q-22 0 -36 14t-14 36t14 36t36 14t36 -14t14 -36t-14 -36t-36 -14z"/>
<glyph glyph-name="igrave" horiz-adv-x="213" unicode="ì" d="M58 0v527h97v-527h-97zM7 734h90l75 -124h-76z"/>
<glyph glyph-name="iacute" horiz-adv-x="213" unicode="í" d="M58 0v527h97v-527h-97zM213 734l-89 -124h-76l75 124h90z"/>
<glyph glyph-name="icircumflex" horiz-adv-x="234" unicode="î" d="M68 0v527h97v-527h-97zM158 734l78 -125h-71l-47 69l-49 -69h-70l78 125h81z"/>
<glyph glyph-name="idieresis" horiz-adv-x="232" unicode="ï" d="M67 0v527h97v-527h-97zM181 624q-22 0 -35.5 13t-13.5 35t13.5 35.5t35.5 13.5t35.5 -13.5t13.5 -35.5t-13.5 -35t-35.5 -13zM51 624q-22 0 -35 13t-13 35t13 35.5t35 13.5t35 -13.5t13 -35.5t-13 -35t-35 -13z"/>
<glyph glyph-name="eth" horiz-adv-x="459" unicode="ð" d="M314 189v120q0 106 -85 106t-85 -106v-120q0 -106 84 -106q86 0 86 106zM343 627q69 -90 69 -225v-213q0 -96 -49 -148t-135 -52q-85 0 -133.5 52t-48.5 148v120q0 95 46 147.5t125 52.5q55 0 92 -30q-13 59 -51 104l-76 -39l-17 38l61 31q-36 29 -84 44l34 79 q81 -22 138 -78l66 34l18 -37z"/>
<glyph glyph-name="ntilde" horiz-adv-x="469" unicode="ñ" d="M268 540q70 0 109 -52t39 -157v-331h-97v326q0 64 -18 93t-56 29q-42 0 -66 -32t-24 -90v-326h-97v527h69l10 -59q43 72 131 72zM201 646q-19 0 -24 -27h-65q2 43 23.5 67.5t55.5 24.5q23 0 46 -15t32 -15q21 0 26 27h63q-4 -43 -25 -67.5t-54 -24.5q-23 0 -46 15t-32 15 z"/>
<glyph glyph-name="ograve" horiz-adv-x="463" unicode="ò" d="M231 82q88 0 88 106v152q0 106 -88 106q-87 0 -87 -106v-152q0 -106 87 -106zM231 -12q-86 0 -135.5 52t-49.5 148v152q0 96 49.5 148t135.5 52q87 0 136.5 -52t49.5 -148v-152q0 -96 -49.5 -148t-136.5 -52zM131 734h90l75 -124h-76z"/>
<glyph glyph-name="oacute" horiz-adv-x="463" unicode="ó" d="M231 82q88 0 88 106v152q0 106 -88 106q-87 0 -87 -106v-152q0 -106 87 -106zM231 -12q-86 0 -135.5 52t-49.5 148v152q0 96 49.5 148t135.5 52q87 0 136.5 -52t49.5 -148v-152q0 -96 -49.5 -148t-136.5 -52zM337 734l-89 -124h-76l75 124h90z"/>
<glyph glyph-name="ocircumflex" horiz-adv-x="463" unicode="ô" d="M319 188v152q0 106 -88 106q-87 0 -87 -106v-152q0 -106 87 -106q88 0 88 106zM231 540q87 0 136.5 -52t49.5 -148v-152q0 -96 -49.5 -148t-136.5 -52q-86 0 -135.5 52t-49.5 148v152q0 96 49.5 148t135.5 52zM231 679l-51 -70h-72l81 125h83l81 -125h-72z"/>
<glyph glyph-name="otilde" horiz-adv-x="463" unicode="õ" d="M231 82q88 0 88 106v152q0 106 -88 106q-87 0 -87 -106v-152q0 -106 87 -106zM231 -12q-86 0 -135.5 52t-49.5 148v152q0 96 49.5 148t135.5 52q87 0 136.5 -52t49.5 -148v-152q0 -96 -49.5 -148t-136.5 -52zM197 648q-19 0 -24 -27h-65q2 43 23.5 67.5t55.5 24.5 q24 0 46.5 -15t31.5 -15q21 0 26 27h63q-4 -43 -25 -67.5t-54 -24.5q-23 0 -46 15t-32 15z"/>
<glyph glyph-name="odieresis" horiz-adv-x="463" unicode="ö" d="M231 82q88 0 88 106v152q0 106 -88 106q-87 0 -87 -106v-152q0 -106 87 -106zM231 -12q-86 0 -135.5 52t-49.5 148v152q0 96 49.5 148t135.5 52q87 0 136.5 -52t49.5 -148v-152q0 -96 -49.5 -148t-136.5 -52zM301 622q-23 0 -37 13.5t-14 36.5t14 36.5t37 13.5t36.5 -14 t13.5 -36t-13.5 -36t-36.5 -14zM161 622q-23 0 -36.5 14t-13.5 36t13.5 36t36.5 14t36.5 -14t13.5 -36t-13.5 -36t-36.5 -14z"/>
<glyph glyph-name="divide" horiz-adv-x="461" unicode="÷" d="M231 89q-25 0 -41.5 16.5t-16.5 41.5t16.5 41.5t41.5 16.5t41.5 -16.5t16.5 -41.5t-16.5 -41.5t-41.5 -16.5zM43 263v85h374v-85h-374zM231 399q-25 0 -41.5 16.5t-16.5 41.5q0 26 16 42.5t42 16.5t42 -16.5t16 -42.5q0 -25 -16.5 -41.5t-41.5 -16.5z"/>
<glyph glyph-name="oslash" horiz-adv-x="463" unicode="ø" d="M319 189v151q0 26 -4 42l-116 -294q17 -5 32 -5q88 0 88 106zM144 189q0 -27 6 -46l117 297q-17 6 -36 6q-87 0 -87 -106v-151zM360 496q57 -54 57 -156v-151q0 -96 -49.5 -148t-136.5 -52q-38 0 -67 10l-26 -66h-71l39 98q-60 52 -60 158v151q0 96 49.5 148t135.5 52 q38 0 71 -11l26 67h71z"/>
<glyph glyph-name="ugrave" horiz-adv-x="469" unicode="ù" d="M314 527h97v-527h-69l-10 59q-43 -72 -131 -72q-70 0 -109 52t-39 157v331h97v-326q0 -64 18 -93t56 -29q42 0 66 32t24 90v326zM297 608h-76l-89 124h90z"/>
<glyph glyph-name="uacute" horiz-adv-x="469" unicode="ú" d="M314 527h97v-527h-69l-10 59q-43 -72 -131 -72q-70 0 -109 52t-39 157v331h97v-326q0 -64 18 -93t56 -29q42 0 66 32t24 90v326zM338 732l-89 -124h-76l75 124h90z"/>
<glyph glyph-name="ucircumflex" horiz-adv-x="469" unicode="û" d="M314 527h97v-527h-69l-10 59q-43 -72 -131 -72q-70 0 -109 52t-39 157v331h97v-326q0 -64 18 -93t56 -29q42 0 66 32t24 90v326zM232 677l-51 -70h-72l81 125h83l81 -125h-72z"/>
<glyph glyph-name="udieresis" horiz-adv-x="469" unicode="ü" d="M314 527h97v-527h-69l-10 59q-43 -72 -131 -72q-70 0 -109 52t-39 157v331h97v-326q0 -64 18 -93t56 -29q42 0 66 32t24 90v326zM302 620q-23 0 -37 13.5t-14 36.5t14 36.5t37 13.5q22 0 36 -14t14 -36t-14 -36t-36 -14zM162 620q-22 0 -36 14t-14 36t14 36t36 14t36 -14 t14 -36t-14 -36t-36 -14z"/>
<glyph glyph-name="yacute" horiz-adv-x="417" unicode="ý" d="M313 527h100l-169 -568q-21 -72 -53.5 -110.5t-87.5 -38.5h-52v94h33q28 0 42 17.5t25 54.5l23 79l-170 472h102l109 -334zM312 736l-89 -124h-76l75 124h90z"/>
<glyph glyph-name="thorn" horiz-adv-x="465" unicode="þ" d="M321 200v142q0 111 -83 111q-40 0 -62.5 -29.5t-22.5 -81.5v-142q0 -51 22.5 -81t62.5 -30q83 0 83 111zM254 545q76 0 120.5 -54t44.5 -149v-142q0 -95 -44.5 -148.5t-120.5 -53.5q-59 0 -101 42v-220h-95v902h95v-220q41 43 101 43z"/>
<glyph glyph-name="ydieresis" horiz-adv-x="417" unicode="ÿ" d="M313 527h100l-169 -568q-21 -72 -53.5 -110.5t-87.5 -38.5h-52v94h33q28 0 42 17.5t25 54.5l23 79l-170 472h102l109 -334zM276 624q-23 0 -37 13.5t-14 36.5t14 36.5t37 13.5q22 0 36 -14t14 -36t-14 -36t-36 -14zM136 624q-22 0 -36 14t-14 36t14 36t36 14t36 -14 t14 -36t-14 -36t-36 -14z"/>
<glyph glyph-name="Amacron" horiz-adv-x="476" unicode="Ā" d="M167 235h142l-44 188q-15 70 -26 150h-3q-13 -95 -26 -150zM363 0l-33 141h-185l-32 -141h-106l176 700h109l176 -700h-105zM340 862v-69h-202v69h202z"/>
<glyph glyph-name="amacron" horiz-adv-x="454" unicode="ā" d="M299 157v72h-77q-93 0 -93 -79q0 -36 22 -56.5t62 -20.5q39 0 62.5 23t23.5 61zM225 540q84 0 127.5 -49t43.5 -141v-350h-79l-7 49q-37 -62 -117 -62q-73 0 -117.5 44.5t-44.5 118.5q0 79 51 121t140 42h77v37q0 97 -76 97q-33 0 -54.5 -18t-25.5 -52h-97q4 76 52 119.5 t127 43.5zM326 704v-68h-202v68h202z"/>
<glyph glyph-name="Abreve" horiz-adv-x="476" unicode="Ă" d="M167 235h142l-44 188q-15 70 -26 150h-3q-13 -95 -26 -150zM363 0l-33 141h-185l-32 -141h-106l176 700h109l176 -700h-105zM239 768q-53 0 -86 32t-35 88h69q3 -53 51 -53q49 0 52 53h69q-2 -57 -34.5 -88.5t-85.5 -31.5z"/>
<glyph glyph-name="abreve" horiz-adv-x="454" unicode="ă" d="M299 157v72h-77q-93 0 -93 -79q0 -36 22 -56.5t62 -20.5q39 0 62.5 23t23.5 61zM225 540q84 0 127.5 -49t43.5 -141v-350h-79l-7 49q-37 -62 -117 -62q-73 0 -117.5 44.5t-44.5 118.5q0 79 51 121t140 42h77v37q0 97 -76 97q-33 0 -54.5 -18t-25.5 -52h-97q4 76 52 119.5 t127 43.5zM226 609q-53 0 -86 32t-35 88h69q3 -53 51 -53q49 0 52 53h69q-2 -57 -34.5 -88.5t-85.5 -31.5z"/>
<glyph glyph-name="Aogonek" horiz-adv-x="476" unicode="Ą" d="M167 235h142l-44 188q-15 70 -26 150h-3q-13 -95 -26 -150zM430 -116q17 0 29 3l1 -71q-22 -9 -62 -9q-45 0 -69 23.5t-24 59.5q0 59 58 110l-33 141h-185l-32 -141h-106l176 700h109l176 -700h-21q-23 -18 -37.5 -42.5t-14.5 -42.5q0 -31 35 -31z"/>
<glyph glyph-name="aogonek" horiz-adv-x="456" unicode="ą" d="M214 73q40 0 63.5 23t23.5 61v72h-78q-94 0 -94 -79q0 -36 22.5 -56.5t62.5 -20.5zM340 -193q-46 0 -68.5 24t-22.5 61q0 57 70 108l-7 49q-37 -62 -119 -62q-73 0 -117.5 44.5t-44.5 118.5q0 79 51 121t141 42h78v37q0 97 -77 97q-33 0 -55 -18t-26 -52h-97 q4 76 52 119.5t128 43.5q85 0 128.5 -49t43.5 -141v-350q-29 -20 -47 -43.5t-18 -43.5q0 -30 33 -30q20 0 32 4v-71q-23 -9 -58 -9z"/>
<glyph glyph-name="Cacute" horiz-adv-x="492" unicode="Ć" d="M253 -12q-94 0 -148.5 57t-54.5 161v288q0 105 54 162t148 57q96 0 150 -55.5t58 -159.5h-100q-9 119 -109 119q-46 0 -72 -31t-26 -92v-288q0 -61 26.5 -91.5t73.5 -30.5q101 0 111 118h100q-5 -103 -59.5 -158.5t-151.5 -55.5zM189 768l93 125h92l-109 -125h-76z"/>
<glyph glyph-name="cacute" horiz-adv-x="437" unicode="ć" d="M224 -11q-83 0 -130.5 50.5t-47.5 142.5v166q0 91 47.5 141.5t130.5 50.5q85 0 132.5 -50t50.5 -142h-98q-3 99 -84 99t-81 -99v-166q0 -100 81 -100q83 0 87 100h97q-2 -92 -51 -142.5t-134 -50.5zM332 734l-89 -124h-76l75 124h90z"/>
<glyph glyph-name="Cdotaccent" horiz-adv-x="492" unicode="Ċ" d="M253 -12q-94 0 -148.5 57t-54.5 161v288q0 105 54 162t148 57q96 0 150 -55.5t58 -159.5h-100q-9 119 -109 119q-46 0 -72 -31t-26 -92v-288q0 -61 26.5 -91.5t73.5 -30.5q101 0 111 118h100q-5 -103 -59.5 -158.5t-151.5 -55.5zM247 778q-28 0 -45 17.5t-17 44.5 q0 26 17.5 43.5t44.5 17.5q26 0 43.5 -17.5t17.5 -43.5t-17.5 -44t-43.5 -18z"/>
<glyph glyph-name="cdotaccent" horiz-adv-x="437" unicode="ċ" d="M224 -11q-83 0 -130.5 50.5t-47.5 142.5v166q0 91 47.5 141.5t130.5 50.5q85 0 132.5 -50t50.5 -142h-98q-3 99 -84 99t-81 -99v-166q0 -100 81 -100q83 0 87 100h97q-2 -92 -51 -142.5t-134 -50.5zM225 615q-27 0 -44 17.5t-17 43.5q0 27 17 44.5t44 17.5t44.5 -17.5 t17.5 -44.5q0 -26 -17.5 -43.5t-44.5 -17.5z"/>
<glyph glyph-name="Ccaron" horiz-adv-x="492" unicode="Č" d="M364 202h100q-5 -103 -59.5 -158.5t-151.5 -55.5q-94 0 -148.5 57t-54.5 161v288q0 105 54 162t148 57q96 0 150 -55.5t58 -159.5h-100q-9 119 -109 119q-46 0 -72 -31t-26 -92v-288q0 -61 26.5 -91.5t73.5 -30.5q101 0 111 118zM289 768h-83l-81 125h72l51 -70l50 70h72 z"/>
<glyph glyph-name="ccaron" horiz-adv-x="437" unicode="č" d="M312 182h97q-2 -92 -51 -142.5t-134 -50.5q-83 0 -130.5 50.5t-47.5 142.5v166q0 91 47.5 141.5t130.5 50.5q85 0 132.5 -50t50.5 -142h-98q-3 99 -84 99t-81 -99v-166q0 -100 81 -100q83 0 87 100zM267 609h-83l-81 125h72l51 -70l50 70h72z"/>
<glyph glyph-name="Dcaron" horiz-adv-x="510" unicode="Ď" d="M358 222v258q0 124 -113 124h-74v-508h74q54 0 83.5 32t29.5 94zM244 700q102 0 159 -57.5t57 -160.5v-262q0 -104 -57 -162t-158 -58h-175v700h174zM283 768h-83l-81 125h72l51 -70l50 70h72z"/>
<glyph glyph-name="dcaron" horiz-adv-x="534" unicode="ď" d="M315 192v146q0 51 -23 80.5t-63 29.5q-85 0 -85 -110v-145q0 -113 85 -113q39 0 62.5 28.5t23.5 83.5zM315 497v227h94v-724h-70l-7 49q-47 -61 -119 -61q-75 0 -121 55t-46 150v145q0 95 45 148.5t122 53.5q61 0 102 -43zM472 772h88l-41 -185h-60z"/>
<glyph glyph-name="Dcroat" horiz-adv-x="521" unicode="Đ" d="M368 212v278q0 114 -113 114h-74v-213h84v-69h-84v-226h74q113 0 113 116zM250 700q103 0 162 -55t59 -153v-282q0 -100 -59 -155t-161 -55h-171v322h-71v69h71v309h170z"/>
<glyph glyph-name="dcroat" horiz-adv-x="473" unicode="đ" d="M315 192v146q0 51 -23 80.5t-63 29.5q-85 0 -85 -110v-145q0 -113 85 -113q39 0 62.5 28.5t23.5 83.5zM473 657v-56h-64v-601h-70l-7 49q-47 -61 -119 -61q-75 0 -121 55t-46 150v145q0 95 45 148.5t122 53.5q61 0 102 -43v104h-98v56h98v67h94v-67h64z"/>
<glyph glyph-name="Emacron" horiz-adv-x="461" unicode="Ē" d="M171 95h252v-95h-353v700h343v-95h-242v-203h223v-93h-223v-214zM342 862v-69h-202v69h202z"/>
<glyph glyph-name="emacron" horiz-adv-x="454" unicode="ē" d="M227 449q-84 0 -84 -104v-45h171v45q0 104 -87 104zM320 165h97q-7 -84 -57 -130t-135 -46q-83 0 -131 52t-48 146v157q0 93 48 144.5t132 51.5q86 0 135 -51.5t49 -144.5v-117h-267v-40q0 -105 84 -105q43 0 64.5 19.5t28.5 63.5zM327 702v-68h-202v68h202z"/>
<glyph glyph-name="Edotaccent" horiz-adv-x="461" unicode="Ė" d="M171 95h252v-95h-353v700h343v-95h-242v-203h223v-93h-223v-214zM239 778q-28 0 -45 17.5t-17 44.5q0 26 17.5 43.5t44.5 17.5q26 0 43.5 -17.5t17.5 -43.5t-17.5 -44t-43.5 -18z"/>
<glyph glyph-name="edotaccent" horiz-adv-x="454" unicode="ė" d="M227 449q-84 0 -84 -104v-45h171v45q0 104 -87 104zM320 165h97q-7 -84 -57 -130t-135 -46q-83 0 -131 52t-48 146v157q0 93 48 144.5t132 51.5q86 0 135 -51.5t49 -144.5v-117h-267v-40q0 -105 84 -105q43 0 64.5 19.5t28.5 63.5zM225 613q-27 0 -44 17.5t-17 43.5 q0 27 17 44.5t44 17.5t44.5 -17.5t17.5 -44.5q0 -26 -17.5 -43.5t-44.5 -17.5z"/>
<glyph glyph-name="Eogonek" horiz-adv-x="465" unicode="Ę" d="M427 -113l1 -71q-21 -9 -62 -9q-45 0 -68.5 23.5t-23.5 59.5q0 59 66 110h-270v700h343v-95h-242v-203h223v-93h-223v-214h252v-95q-26 -18 -43 -41.5t-17 -41.5q0 -33 35 -33q17 0 29 3z"/>
<glyph glyph-name="eogonek" horiz-adv-x="454" unicode="ę" d="M143 300h171v45q0 104 -87 104q-84 0 -84 -104v-45zM305 -193q-45 0 -69 23.5t-24 60.5q0 51 53 101v1q-22 -4 -39 -4q-84 0 -132 52t-48 146v157q0 92 48 144t132 52q86 0 135 -51.5t49 -144.5v-117h-267v-40q0 -105 85 -105q43 0 64.5 20.5t27.5 62.5h97 q-8 -77 -56 -129q-65 -68 -65 -112q0 -40 38 -40q20 0 33 3v-71q-27 -9 -62 -9z"/>
<glyph glyph-name="Ecaron" horiz-adv-x="461" unicode="Ě" d="M171 95h252v-95h-353v700h343v-95h-242v-203h223v-93h-223v-214zM281 768h-83l-81 125h72l51 -70l50 70h72z"/>
<glyph glyph-name="ecaron" horiz-adv-x="454" unicode="ě" d="M227 449q-84 0 -84 -104v-45h171v45q0 104 -87 104zM320 165h97q-7 -84 -57 -130t-135 -46q-83 0 -131 52t-48 146v157q0 93 48 144.5t132 51.5q86 0 135 -51.5t49 -144.5v-117h-267v-40q0 -105 84 -105q43 0 64.5 19.5t28.5 63.5zM267 607h-83l-81 125h72l51 -70l50 70 h72z"/>
<glyph glyph-name="Gbreve" horiz-adv-x="506" unicode="Ğ" d="M257 -11q-96 0 -151.5 57t-55.5 162v285q0 105 54.5 161.5t150.5 56.5q94 0 147 -55t57 -158h-100q-6 116 -104 116q-102 0 -102 -122v-284q0 -122 105 -122q107 0 107 117v88h-111v90h210v-178q-1 -102 -56.5 -158t-150.5 -56zM252 768q-53 0 -86 32t-35 88h69 q3 -53 51 -53q49 0 52 53h69q-2 -57 -34.5 -88.5t-85.5 -31.5z"/>
<glyph glyph-name="gbreve" horiz-adv-x="470" unicode="ğ" d="M231 113q83 0 83 101v132q0 49 -23 75t-60 26q-87 0 -87 -107v-126q0 -101 87 -101zM341 527h71v-554q0 -75 -48 -120.5t-129 -45.5q-79 0 -126 44.5t-50 119.5h95q6 -74 81 -74q37 0 58 20.5t21 55.5v82q-40 -34 -99 -34q-75 0 -122 53t-47 140v126q0 92 46.5 146 t121.5 54t119 -55zM231 609q-53 0 -86 32t-35 88h69q3 -53 51 -53q49 0 52 53h69q-2 -57 -34.5 -88.5t-85.5 -31.5z"/>
<glyph glyph-name="Gdotaccent" horiz-adv-x="506" unicode="Ġ" d="M257 -11q-96 0 -151.5 57t-55.5 162v285q0 105 54.5 161.5t150.5 56.5q94 0 147 -55t57 -158h-100q-6 116 -104 116q-102 0 -102 -122v-284q0 -122 105 -122q107 0 107 117v88h-111v90h210v-178q-1 -102 -56.5 -158t-150.5 -56zM250 778q-28 0 -45 17.5t-17 44.5 q0 26 17 43.5t45 17.5q26 0 43.5 -17.5t17.5 -43.5t-17.5 -44t-43.5 -18z"/>
<glyph glyph-name="gdotaccent" horiz-adv-x="470" unicode="ġ" d="M231 113q83 0 83 101v132q0 49 -23 75t-60 26q-87 0 -87 -107v-126q0 -101 87 -101zM341 527h71v-554q0 -75 -48 -120.5t-129 -45.5q-79 0 -126 44.5t-50 119.5h95q6 -74 81 -74q37 0 58 20.5t21 55.5v82q-40 -34 -99 -34q-75 0 -122 53t-47 140v126q0 92 46.5 146 t121.5 54t119 -55zM229 615q-27 0 -44 17.5t-17 43.5q0 27 17 44.5t44 17.5t44.5 -17.5t17.5 -44.5q0 -26 -17.5 -43.5t-44.5 -17.5z"/>
<glyph glyph-name="Gcommaaccent" horiz-adv-x="506" unicode="Ģ" d="M193 -265l17 195h88l-43 -195h-62zM257 -11q-96 0 -151.5 57t-55.5 162v285q0 105 54.5 161.5t150.5 56.5q94 0 147 -55t57 -158h-100q-6 116 -104 116q-102 0 -102 -122v-284q0 -122 105 -122q107 0 107 117v88h-111v90h210v-178q-1 -102 -56.5 -158t-150.5 -56z"/>
<glyph glyph-name="gcommaaccent" horiz-adv-x="470" unicode="ģ" d="M231 113q83 0 83 101v132q0 49 -23 75t-60 26q-87 0 -87 -107v-126q0 -101 87 -101zM341 527h71v-554q0 -75 -48 -120.5t-129 -45.5q-79 0 -126 44.5t-50 119.5h95q6 -74 81 -74q37 0 58 20.5t21 55.5v82q-40 -34 -99 -34q-75 0 -122 53t-47 140v126q0 92 46.5 146 t121.5 54t119 -55zM275 604h-96l-18 196h63z"/>
<glyph glyph-name="Hbar" horiz-adv-x="570" unicode="Ħ" d="M384 402v122h-198v-122h198zM552 579v-55h-67v-524h-101v307h-198v-307h-101v524h-68v55h68v121h101v-121h198v121h101v-121h67z"/>
<glyph glyph-name="hbar" horiz-adv-x="467" unicode="ħ" d="M269 540q146 0 146 -219v-321h-97v318q0 69 -18.5 99.5t-56.5 30.5q-41 0 -65.5 -32t-24.5 -90v-326h-96v605h-64v55h64v64h96v-64h94v-55h-94v-130q42 65 116 65z"/>
<glyph glyph-name="Imacron" horiz-adv-x="240" unicode="Ī" d="M70 700h101v-700h-101v700zM23 862h202v-69h-202v69z"/>
<glyph glyph-name="imacron" horiz-adv-x="210" unicode="ī" d="M57 0v527h97v-527h-97zM13 704h185v-70h-185v70z"/>
<glyph glyph-name="Iogonek" horiz-adv-x="239" unicode="Į" d="M158 -115q21 0 30 3v-71q-29 -10 -63 -10q-49 0 -73 24t-24 64q0 59 52 105h-11v700h101v-700h-12q-18 -18 -30 -41.5t-12 -40.5q0 -33 42 -33z"/>
<glyph glyph-name="iogonek" horiz-adv-x="211" unicode="į" d="M140 -116q16 0 30 3v-71q-21 -9 -66 -9t-69 23.5t-24 59.5q0 58 43 109v526h97v-525l-14 -1q-37 -41 -37 -79q0 -36 40 -36zM103 617q-24 0 -40 16t-16 40q0 25 15.5 41t40.5 16q24 0 40.5 -16t16.5 -41q0 -23 -16.5 -39.5t-40.5 -16.5z"/>
<glyph glyph-name="Idotaccent" horiz-adv-x="240" unicode="İ" d="M70 700h101v-700h-101v700zM122 778q-28 0 -45 17.5t-17 44.5q0 26 17 43.5t45 17.5q26 0 43.5 -17.5t17.5 -43.5t-17.5 -44t-43.5 -18z"/>
<glyph glyph-name="dotlessi" horiz-adv-x="213" unicode="ı" d="M58 0v527h97v-527h-97z"/>
<glyph glyph-name="Kcommaaccent" horiz-adv-x="503" unicode="Ķ" d="M194 -265l17 195h88l-43 -195h-62zM274 395l229 -395h-116l-171 306l-46 -69v-237h-100v700h100v-304l46 82l140 222h118z"/>
<glyph glyph-name="kcommaaccent" horiz-adv-x="441" unicode="ķ" d="M171 -265l17 195h88l-43 -195h-62zM257 316l187 -316h-111l-140 241l-39 -42v-199h-96v724h96v-403l150 206h115z"/>
<glyph glyph-name="Lacute" horiz-adv-x="410" unicode="Ĺ" d="M171 96h232v-96h-333v700h101v-604zM305 893l-109 -125h-76l93 125h92z"/>
<glyph glyph-name="lacute" horiz-adv-x="214" unicode="ĺ" d="M56 0v724h97v-724h-97zM47 768l93 125h92l-109 -125h-76z"/>
<glyph glyph-name="Lcommaaccent" horiz-adv-x="410" unicode="Ļ" d="M152 -265l17 195h88l-43 -195h-62zM171 96h232v-96h-333v700h101v-604z"/>
<glyph glyph-name="lcommaaccent" horiz-adv-x="209" unicode="ļ" d="M55 -265l17 195h88l-43 -195h-62zM56 0v724h97v-724h-97z"/>
<glyph glyph-name="Lcaron" horiz-adv-x="404" unicode="Ľ" d="M366 700l-40 -201h-60l10 201h90zM171 95h217v-95h-318v700h101v-605z"/>
<glyph glyph-name="lcaron" horiz-adv-x="278" unicode="ľ" d="M56 0v724h97v-724h-97zM202 584l13 187h89l-42 -187h-60z"/>
<glyph glyph-name="Lslash" horiz-adv-x="430" unicode="Ł" d="M199 95h224v-95h-325v300l-76 -29v87l76 29v313h101v-275l123 47v-87l-123 -47v-243z"/>
<glyph glyph-name="lslash" horiz-adv-x="258" unicode="ł" d="M246 484v-79l-70 -24v-381h-96v349l-68 -23v79l68 23v294h96v-262z"/>
<glyph glyph-name="Nacute" horiz-adv-x="555" unicode="Ń" d="M385 700h100v-700h-101l-156 343q-43 107 -67 170l-3 -2q12 -120 12 -241v-270h-100v700h101l161 -357q18 -40 64 -154l3 2q-14 121 -14 236v273zM219 768l93 125h92l-109 -125h-76z"/>
<glyph glyph-name="nacute" horiz-adv-x="469" unicode="ń" d="M268 540q70 0 109 -52t39 -157v-331h-97v326q0 64 -18 93t-56 29q-42 0 -66 -32t-24 -90v-326h-97v527h69l10 -59q43 72 131 72zM341 732l-89 -124h-76l75 124h90z"/>
<glyph glyph-name="Ncommaaccent" horiz-adv-x="555" unicode="Ņ" d="M220 -265l17 195h88l-43 -195h-62zM385 700h100v-700h-101l-156 343q-43 107 -67 170l-3 -2q12 -120 12 -241v-270h-100v700h101l161 -357q18 -40 64 -154l3 2q-14 121 -14 236v273z"/>
<glyph glyph-name="ncommaaccent" horiz-adv-x="469" unicode="ņ" d="M170 -265l17 195h88l-43 -195h-62zM268 540q70 0 109 -52t39 -157v-331h-97v326q0 64 -18 93t-56 29q-42 0 -66 -32t-24 -90v-326h-97v527h69l10 -59q43 72 131 72z"/>
<glyph glyph-name="Ncaron" horiz-adv-x="555" unicode="Ň" d="M385 700h100v-700h-101l-156 343q-43 107 -67 170l-3 -2q12 -120 12 -241v-270h-100v700h101l161 -357q18 -40 64 -154l3 2q-14 121 -14 236v273zM319 768h-83l-81 125h72l51 -70l50 70h72z"/>
<glyph glyph-name="ncaron" horiz-adv-x="469" unicode="ň" d="M268 540q70 0 109 -52t39 -157v-331h-97v326q0 64 -18 93t-56 29q-42 0 -66 -32t-24 -90v-326h-97v527h69l10 -59q43 72 131 72zM276 607h-83l-81 125h72l51 -70l50 70h72z"/>
<glyph glyph-name="Eng" horiz-adv-x="555" unicode="Ŋ" d="M385 700h100v-706q0 -88 -47.5 -137t-137.5 -50v93q88 1 88 90v1l-162 356q-31 77 -65 166l-3 -2q12 -120 12 -241v-270h-100v700h101l165 -361q36 -91 61 -158l3 1q-15 133 -15 243v275z"/>
<glyph glyph-name="eng" horiz-adv-x="469" unicode="ŋ" d="M268 540q148 0 148 -209v-344q0 -88 -47.5 -137t-137.5 -50v93q88 1 88 90v343q0 64 -18 93t-56 29q-42 0 -66 -32t-24 -90v-326h-97v527h69l10 -59q43 72 131 72z"/>
<glyph glyph-name="Omacron" horiz-adv-x="528" unicode="Ō" d="M264 86q54 0 82 35t28 101v256q0 66 -28 101t-82 35q-110 0 -110 -136v-256q0 -136 110 -136zM264 -13q-100 0 -157 62.5t-57 172.5v256q0 110 57 172.5t157 62.5t157 -62.5t57 -172.5v-256q0 -110 -57 -172.5t-157 -62.5zM164 862h202v-69h-202v69z"/>
<glyph glyph-name="omacron" horiz-adv-x="463" unicode="ō" d="M231 82q88 0 88 106v152q0 106 -88 106q-87 0 -87 -106v-152q0 -106 87 -106zM231 -12q-86 0 -135.5 52t-49.5 148v152q0 96 49.5 148t135.5 52q87 0 136.5 -52t49.5 -148v-152q0 -96 -49.5 -148t-136.5 -52zM130 704h202v-68h-202v68z"/>
<glyph glyph-name="Ohungarumlaut" horiz-adv-x="528" unicode="Ő" d="M264 86q54 0 82 35t28 101v256q0 66 -28 101t-82 35q-110 0 -110 -136v-256q0 -136 110 -136zM264 -13q-100 0 -157 62.5t-57 172.5v256q0 110 57 172.5t157 62.5t157 -62.5t57 -172.5v-256q0 -110 -57 -172.5t-157 -62.5zM432 893l-92 -124h-69l77 124h84zM304 893 l-87 -124h-69l72 124h84z"/>
<glyph glyph-name="ohungarumlaut" horiz-adv-x="463" unicode="ő" d="M231 82q88 0 88 106v152q0 106 -88 106q-87 0 -87 -106v-152q0 -106 87 -106zM231 -12q-86 0 -135.5 52t-49.5 148v152q0 96 49.5 148t135.5 52q87 0 136.5 -52t49.5 -148v-152q0 -96 -49.5 -148t-136.5 -52zM396 734l-92 -124h-69l77 124h84zM268 734l-87 -124h-69 l72 124h84z"/>
<glyph glyph-name="OE" horiz-adv-x="765" unicode="Œ" d="M260 86q114 0 114 136v256q0 136 -114 136q-106 0 -106 -136v-256q0 -136 106 -136zM475 95h253v-95h-354v40q-50 -53 -120 -53q-95 0 -149.5 62.5t-54.5 172.5v256q0 110 54.5 172.5t149.5 62.5q70 0 120 -53v40h343v-95h-242v-203h224v-93h-224v-214z"/>
<glyph glyph-name="oe" horiz-adv-x="715" unicode="œ" d="M315 189v149q0 105 -86 105q-85 0 -85 -105v-149q0 -106 85 -106q86 0 86 106zM411 343v-42h168v42q0 103 -85 103q-83 0 -83 -103zM581 170h97q-4 -86 -53 -133.5t-132 -47.5q-85 0 -130 66q-48 -66 -134 -66t-134.5 52t-48.5 148v149q0 96 48.5 147.5t134.5 51.5 q88 0 133 -65q45 65 131 65q85 0 133 -51.5t48 -143.5v-113h-263v-42q0 -105 83 -105q42 0 62.5 21t24.5 67z"/>
<glyph glyph-name="Racute" horiz-adv-x="504" unicode="Ŕ" d="M171 604v-254h78q53 0 80.5 33t27.5 96q0 125 -107 125h-79zM375 0l-141 254h-63v-254h-101v700h181q100 0 155 -57.5t55 -161.5q0 -81 -33 -136t-93 -77l152 -268h-112zM381 893l-109 -125h-76l93 125h92z"/>
<glyph glyph-name="racute" horiz-adv-x="340" unicode="ŕ" d="M273 539q35 0 55 -8v-96q-28 12 -65 12q-50 0 -79 -32t-29 -90v-325h-97v527h69l11 -61q43 73 135 73zM292 734l-89 -124h-76l75 124h90z"/>
<glyph glyph-name="Rcommaaccent" horiz-adv-x="504" unicode="Ŗ" d="M197 -265l17 195h88l-43 -195h-62zM171 604v-254h78q53 0 80.5 33t27.5 96q0 125 -107 125h-79zM335 268l152 -268h-112l-141 254h-63v-254h-101v700h181q100 0 155 -57.5t55 -161.5q0 -81 -33 -136t-93 -77z"/>
<glyph glyph-name="rcommaaccent" horiz-adv-x="340" unicode="ŗ" d="M66 -265l17 195h88l-43 -195h-62zM273 539q35 0 55 -8v-96q-28 12 -65 12q-50 0 -79 -32t-29 -90v-325h-97v527h69l11 -61q43 73 135 73z"/>
<glyph glyph-name="Rcaron" horiz-adv-x="504" unicode="Ř" d="M171 604v-254h78q53 0 80.5 33t27.5 96q0 125 -107 125h-79zM375 0l-141 254h-63v-254h-101v700h181q100 0 155 -57.5t55 -161.5q0 -81 -33 -136t-93 -77l152 -268h-112zM296 768h-83l-81 125h72l51 -70l50 70h72z"/>
<glyph glyph-name="rcaron" horiz-adv-x="340" unicode="ř" d="M273 539q35 0 55 -8v-96q-28 12 -65 12q-50 0 -79 -32t-29 -90v-325h-97v527h69l11 -61q43 73 135 73zM227 609h-83l-81 125h72l51 -70l50 70h72z"/>
<glyph glyph-name="Sacute" horiz-adv-x="465" unicode="Ś" d="M231 -13q-94 0 -149 55t-56 150h103q1 -53 27.5 -80t74.5 -27q49 0 74.5 26t25.5 70q0 28 -16 52t-42 43t-57 37.5t-62.5 39.5t-57.5 45.5t-42 60t-16 77.5q0 77 52.5 127t139.5 50q89 0 141 -53t54 -143h-103q-1 49 -25 74t-66 25t-66 -22t-24 -60q0 -37 30.5 -67.5 t73.5 -54.5t86 -52t73.5 -74t30.5 -106q0 -82 -54.5 -137.5t-149.5 -55.5zM174 768l93 125h92l-109 -125h-76z"/>
<glyph glyph-name="sacute" horiz-adv-x="417" unicode="ś" d="M214 -13q-87 0 -137.5 49.5t-51.5 125.5h96q1 -38 24 -61.5t67 -23.5q38 0 59 17.5t21 48.5q0 25 -19 43t-48 28.5t-62.5 25.5t-62.5 31.5t-48 48t-19 73.5q0 67 46.5 107t123.5 40q82 0 127 -46t48 -122h-95q-2 80 -80 80q-34 0 -54 -16t-20 -44q0 -27 27 -45.5t65 -32 t76 -31t65 -53.5t27 -88q0 -70 -47 -112.5t-128 -42.5zM315 736l-89 -124h-76l75 124h90z"/>
<glyph glyph-name="Scedilla" horiz-adv-x="465" unicode="Ş" d="M435 180q0 -74 -45.5 -127.5t-125.5 -63.5l-11 -38q3 1 12 1q31 0 51.5 -19.5t20.5 -51.5q0 -40 -28 -63.5t-73 -23.5q-39 0 -67 22.5t-32 59.5h60q10 -27 40 -27q39 0 39 34q0 32 -36 32q-19 0 -33 -8l-19 18l18 63q-83 8 -131 62t-49 142h103q1 -53 27.5 -80t74.5 -27 q49 0 74.5 26t25.5 70q0 28 -16 52t-42 43t-57 37.5t-62.5 39.5t-57.5 45.5t-42 60t-16 77.5q0 77 52.5 127t139.5 50q89 0 141 -53t54 -143h-103q-1 49 -25 74t-66 25t-66 -22t-24 -60q0 -37 30.5 -67.5t73.5 -54.5t86 -52t73.5 -74t30.5 -106z"/>
<glyph glyph-name="scedilla" horiz-adv-x="417" unicode="ş" d="M389 142q0 -66 -41 -107.5t-113 -46.5l-11 -37q3 1 12 1q31 0 51.5 -19.5t20.5 -51.5q0 -40 -28 -63.5t-73 -23.5q-39 0 -67 22.5t-32 59.5h60q10 -27 40 -27q39 0 39 34q0 32 -36 32q-19 0 -33 -8l-19 18l19 65q-72 10 -112 57.5t-41 114.5h96q1 -38 24 -61.5t67 -23.5 q38 0 59 17.5t21 48.5q0 25 -19 43t-48 28.5t-62.5 25.5t-62.5 31.5t-48 48t-19 73.5q0 67 46.5 107t123.5 40q82 0 127 -46t48 -122h-95q-2 80 -80 80q-34 0 -54 -16t-20 -44q0 -27 27 -45.5t65 -32t76 -31t65 -53.5t27 -88z"/>
<glyph glyph-name="Scaron" horiz-adv-x="465" unicode="Š" d="M141 534q0 -37 30.5 -67.5t73.5 -54.5t86 -52t73.5 -74t30.5 -106q0 -82 -54.5 -137.5t-149.5 -55.5q-94 0 -149 55t-56 150h103q1 -53 27.5 -80t74.5 -27q49 0 74.5 26t25.5 70q0 28 -16 52t-42 43t-57 37.5t-62.5 39.5t-57.5 45.5t-42 60t-16 77.5q0 77 52.5 127 t139.5 50q89 0 141 -53t54 -143h-103q-1 49 -25 74t-66 25t-66 -22t-24 -60zM274 768h-83l-81 125h72l51 -70l50 70h72z"/>
<glyph glyph-name="scaron" horiz-adv-x="417" unicode="š" d="M129 392q0 -27 27 -45.5t65 -32t76 -31t65 -53.5t27 -88q0 -70 -47 -112.5t-128 -42.5q-87 0 -137.5 49.5t-51.5 125.5h96q1 -38 24 -61.5t67 -23.5q38 0 59 17.5t21 48.5q0 25 -19 43t-48 28.5t-62.5 25.5t-62.5 31.5t-48 48t-19 73.5q0 67 46.5 107t123.5 40 q82 0 127 -46t48 -122h-95q-2 80 -80 80q-34 0 -54 -16t-20 -44zM250 611h-83l-81 125h72l51 -70l50 70h72z"/>
<glyph glyph-name="uni0162" horiz-adv-x="427" unicode="Ţ" d="M157 -265l17 195h88l-43 -195h-62zM411 700v-96h-146v-604h-103v604h-145v96h394z"/>
<glyph glyph-name="uni0163" horiz-adv-x="306" unicode="ţ" d="M121 -265l17 195h88l-43 -195h-62zM259 85h33v-91h-38q-78 0 -122.5 47t-44.5 129v269h-74v88h74v125h96v-125h98v-88h-98v-270q0 -84 76 -84z"/>
<glyph glyph-name="Tcaron" horiz-adv-x="427" unicode="Ť" d="M411 700v-96h-146v-604h-103v604h-145v96h394zM256 768h-83l-81 125h72l51 -70l50 70h72z"/>
<glyph glyph-name="tcaron" horiz-adv-x="365" unicode="ť" d="M183 169q0 -84 76 -84h32v-91h-37q-78 0 -122.5 47t-44.5 129v269h-74v88h74v125h96v-125h98v-88h-98v-270zM253 771h87l-41 -180h-61z"/>
<glyph glyph-name="Tbar" horiz-adv-x="427" unicode="Ŧ" d="M411 604h-146v-219h81v-60h-81v-325h-103v325h-80v60h80v219h-145v96h394v-96z"/>
<glyph glyph-name="tbar" horiz-adv-x="316" unicode="ŧ" d="M259 85h32v-91h-37q-78 0 -122.5 47t-44.5 129v82h-57v66h57v121h-74v88h74v125h96v-125h98v-88h-98v-121h72v-66h-72v-83q0 -84 76 -84z"/>
<glyph glyph-name="Umacron" horiz-adv-x="530" unicode="Ū" d="M265 -10q-96 0 -151.5 59.5t-55.5 166.5v484h104v-484q0 -128 103 -128q48 0 75 32t27 96v484h104v-484q0 -107 -55.5 -166.5t-150.5 -59.5zM166 862h202v-69h-202v69z"/>
<glyph glyph-name="umacron" horiz-adv-x="469" unicode="ū" d="M314 527h97v-527h-69l-10 59q-43 -72 -131 -72q-70 0 -109 52t-39 157v331h97v-326q0 -64 18 -93t56 -29q42 0 66 32t24 90v326zM333 702v-68h-202v68h202z"/>
<glyph glyph-name="Uring" horiz-adv-x="530" unicode="Ů" d="M265 -10q-96 0 -151.5 59.5t-55.5 166.5v484h104v-484q0 -128 103 -128q48 0 75 32t27 96v484h104v-484q0 -107 -55.5 -166.5t-150.5 -59.5zM234 842q0 -14 9 -23t23 -9t23 9t9 23t-9 23t-23 9t-23 -9t-9 -23zM186 843q0 35 22 56t58 21q37 0 59 -21t22 -56t-22 -57 t-59 -22q-36 0 -58 22t-22 57z"/>
<glyph glyph-name="uring" horiz-adv-x="469" unicode="ů" d="M314 527h97v-527h-69l-10 59q-43 -72 -131 -72q-70 0 -109 52t-39 157v331h97v-326q0 -64 18 -93t56 -29q42 0 66 32t24 90v326zM232 714q-14 0 -23 -9t-9 -23t9 -23t23 -9t23 9t9 23t-9 23t-23 9zM232 604q-36 0 -58 22t-22 57t22 56t58 21q37 0 59 -21t22 -56t-22 -57 t-59 -22z"/>
<glyph glyph-name="Uhungarumlaut" horiz-adv-x="530" unicode="Ű" d="M265 -10q-96 0 -151.5 59.5t-55.5 166.5v484h104v-484q0 -128 103 -128q48 0 75 32t27 96v484h104v-484q0 -107 -55.5 -166.5t-150.5 -59.5zM434 893l-92 -124h-69l77 124h84zM306 893l-87 -124h-69l72 124h84z"/>
<glyph glyph-name="uhungarumlaut" horiz-adv-x="469" unicode="ű" d="M314 527h97v-527h-69l-10 59q-43 -72 -131 -72q-70 0 -109 52t-39 157v331h97v-326q0 -64 18 -93t56 -29q42 0 66 32t24 90v326zM305 608h-69l77 124h84zM269 732l-87 -124h-69l72 124h84z"/>
<glyph glyph-name="Uogonek" horiz-adv-x="527" unicode="Ų" d="M323 -193q-45 0 -69 23.5t-24 59.5q0 57 62 109l-1 1q-15 -10 -32 -10q-92 2 -146.5 60.5t-54.5 160.5v489h104v-489q0 -60 27 -91.5t74 -31.5q48 0 74.5 31t26.5 92v489h104v-489q0 -113 -70 -176q-78 -74 -78 -118q0 -33 35 -33q17 0 30 3v-71q-26 -9 -62 -9z"/>
<glyph glyph-name="uogonek" horiz-adv-x="469" unicode="ų" d="M411 0q-28 -19 -45 -43t-17 -44q0 -29 35 -29q14 0 26 3v-71q-21 -9 -60 -9q-41 0 -63.5 23.5t-22.5 58.5q0 61 78 111l-10 60q-43 -72 -130 -72q-149 0 -149 209v330h97v-326q0 -63 18 -92t56 -29q42 0 66 32t24 89v326h97v-527z"/>
<glyph glyph-name="Wcircumflex" horiz-adv-x="751" unicode="Ŵ" d="M639 700h105l-157 -700h-108l-68 309q-25 110 -33 225h-4q-11 -123 -34 -225l-68 -309h-108l-157 700h105l72 -383q29 -165 32 -186h4q8 56 32 191l70 367h107l70 -367q24 -135 32 -191h4q3 21 32 186zM381 838l-51 -70h-72l81 125h83l81 -125h-72z"/>
<glyph glyph-name="wcircumflex" horiz-adv-x="636" unicode="ŵ" d="M532 527h100l-125 -527h-105l-46 191q-28 124 -36 208h-4q-7 -84 -36 -208l-45 -191h-105l-126 527h101l47 -236q19 -102 30 -181h4q12 87 33 185l48 222h103l48 -222q25 -130 33 -185h4q6 50 30 181zM315 677l-51 -70h-72l81 125h83l81 -125h-72z"/>
<glyph glyph-name="Ycircumflex" horiz-adv-x="446" unicode="Ŷ" d="M338 700h106l-170 -470v-230h-101v230l-170 470h105l79 -233q25 -75 35 -110h2l36 112zM224 838l-51 -70h-72l81 125h83l81 -125h-72z"/>
<glyph glyph-name="ycircumflex" horiz-adv-x="417" unicode="ŷ" d="M313 527h100l-169 -568q-21 -72 -53.5 -110.5t-87.5 -38.5h-52v94h33q28 0 42 17.5t25 54.5l23 79l-170 472h102l109 -334zM206 681l-51 -70h-72l81 125h83l81 -125h-72z"/>
<glyph glyph-name="Ydieresis" horiz-adv-x="446" unicode="Ÿ" d="M173 0v230l-170 470h105l79 -233q25 -75 35 -110h2l36 112l78 231h106l-170 -470v-230h-101zM296 782q-23 0 -37 13.5t-14 35.5q0 23 14 36.5t37 13.5t36.5 -13.5t13.5 -36.5q0 -22 -13.5 -35.5t-36.5 -13.5zM150 782q-23 0 -36.5 13.5t-13.5 35.5q0 23 13.5 36.5 t36.5 13.5t36.5 -13.5t13.5 -36.5q0 -22 -13.5 -35.5t-36.5 -13.5z"/>
<glyph glyph-name="Zacute" horiz-adv-x="421" unicode="Ź" d="M140 96h256v-96h-379v70l250 534h-235v96h359v-69zM151 768l93 125h92l-109 -125h-76z"/>
<glyph glyph-name="zacute" horiz-adv-x="366" unicode="ź" d="M132 89h216v-89h-338v65l207 373h-191v89h313v-64zM284 734l-89 -124h-76l75 124h90z"/>
<glyph glyph-name="Zdotaccent" horiz-adv-x="421" unicode="Ż" d="M140 96h256v-96h-379v70l250 534h-235v96h359v-69zM208 788q-27 0 -44 17.5t-17 43.5q0 27 17 44.5t44 17.5t44.5 -17.5t17.5 -44.5q0 -26 -17.5 -43.5t-44.5 -17.5z"/>
<glyph glyph-name="zdotaccent" horiz-adv-x="366" unicode="ż" d="M132 89h216v-89h-338v65l207 373h-191v89h313v-64zM177 615q-27 0 -44 17.5t-17 43.5q0 27 17 44.5t44 17.5t44.5 -17.5t17.5 -44.5q0 -26 -17.5 -43.5t-44.5 -17.5z"/>
<glyph glyph-name="Zcaron" horiz-adv-x="421" unicode="Ž" d="M140 96h256v-96h-379v70l250 534h-235v96h359v-69zM251 768h-83l-81 125h72l51 -70l50 70h72z"/>
<glyph glyph-name="zcaron" horiz-adv-x="366" unicode="ž" d="M132 89h216v-89h-338v65l207 373h-191v89h313v-64zM219 609h-83l-81 125h72l51 -70l50 70h72z"/>
<glyph glyph-name="Scommaaccent" horiz-adv-x="465" unicode="Ș" d="M182 -265l17 195h88l-43 -195h-62zM231 -13q-94 0 -149 55t-56 150h103q1 -53 27.5 -80t74.5 -27q49 0 74.5 26t25.5 70q0 28 -16 52t-42 43t-57 37.5t-62.5 39.5t-57.5 45.5t-42 60t-16 77.5q0 77 52.5 127t139.5 50q89 0 141 -53t54 -143h-103q-1 49 -25 74t-66 25 t-66 -22t-24 -60q0 -37 30.5 -67.5t73.5 -54.5t86 -52t73.5 -74t30.5 -106q0 -82 -54.5 -137.5t-149.5 -55.5z"/>
<glyph glyph-name="scommaaccent" horiz-adv-x="417" unicode="ș" d="M159 -265l17 195h88l-43 -195h-62zM214 -13q-87 0 -137.5 49.5t-51.5 125.5h96q1 -38 24 -61.5t67 -23.5q38 0 59 17.5t21 48.5q0 25 -19 43t-48 28.5t-62.5 25.5t-62.5 31.5t-48 48t-19 73.5q0 67 46.5 107t123.5 40q82 0 127 -46t48 -122h-95q-2 80 -80 80 q-34 0 -54 -16t-20 -44q0 -27 27 -45.5t65 -32t76 -31t65 -53.5t27 -88q0 -70 -47 -112.5t-128 -42.5z"/>
<glyph glyph-name="uni021A" horiz-adv-x="427" unicode="Ț" d="M157 -265l17 195h88l-43 -195h-62zM411 700v-96h-146v-604h-103v604h-145v96h394z"/>
<glyph glyph-name="uni021B" horiz-adv-x="306" unicode="ț" d="M121 -265l17 195h88l-43 -195h-62zM259 85h33v-91h-38q-78 0 -122.5 47t-44.5 129v269h-74v88h74v125h96v-125h98v-88h-98v-270q0 -84 76 -84z"/>
<glyph glyph-name="gravecomb" unicode="̀" d="M-165 734h90l75 -124h-76z"/>
<glyph glyph-name="acutecomb" unicode="́" d="M0 734l-89 -124h-76l75 124h90z"/>
<glyph glyph-name="uni0302" unicode="̂" d="M1 609h-72l-50 70l-51 -70h-72l81 125h83z"/>
<glyph glyph-name="tildecomb" unicode="̃" d="M-157 653q-19 0 -24 -27h-65q2 43 23.5 67.5t55.5 24.5q23 0 46.5 -15t31.5 -15q21 0 26 27h63q-4 -43 -25 -67.5t-54 -24.5q-23 0 -46 15t-32 15z"/>
<glyph glyph-name="uni0304" unicode="̄" d="M-202 704h202v-68h-202v68z"/>
<glyph glyph-name="uni0306" unicode="̆" d="M-121 609q-53 0 -86 32t-35 88h69q3 -53 51 -53q49 0 52 53h69q-2 -57 -34.5 -88.5t-85.5 -31.5z"/>
<glyph glyph-name="uni0307" unicode="̇" d="M-98 615q-27 0 -44 17.5t-17 43.5q0 27 17 44.5t44 17.5t44.5 -17.5t17.5 -44.5q0 -26 -17.5 -43.5t-44.5 -17.5z"/>
<glyph glyph-name="uni0308" unicode="̈" d="M-50 620q-23 0 -37 13.5t-14 36.5t14 36.5t37 13.5q22 0 36 -14t14 -36t-14 -36t-36 -14zM-190 620q-22 0 -36 14t-14 36t14 36t36 14t36 -14t14 -36t-14 -36t-36 -14z"/>
<glyph glyph-name="uni030A" unicode="̊" d="M-121 684q0 -14 9 -23t23 -9t23 9t9 23t-9 23t-23 9t-23 -9t-9 -23zM-169 685q0 35 22 56t58 21q37 0 59 -21t22 -56t-22 -57t-59 -22q-36 0 -58 22t-22 57z"/>
<glyph glyph-name="uni030B" unicode="̋" d="M0 734l-92 -124h-69l77 124h84zM-128 734l-87 -124h-69l72 124h84z"/>
<glyph glyph-name="uni030C" unicode="̌" d="M-67 734h72l-81 -125h-83l-81 125h72l51 -70z"/>
<glyph glyph-name="uni0312" unicode="̒" d="M-51 800l51 -196h-96l-18 196h63z"/>
<glyph glyph-name="uni0326" unicode="̦" d="M-106 -265l17 195h88l-43 -195h-62z"/>
<glyph glyph-name="uni0327" unicode="̧" d="M-110 -206q-39 0 -67 22.5t-32 59.5h60q10 -27 40 -27q39 0 39 34q0 32 -36 32q-19 0 -33 -8l-19 18l22 75h57l-14 -49q3 1 12 1q31 0 51.5 -19.5t20.5 -51.5q0 -40 -28 -63.5t-73 -23.5z"/>
<glyph glyph-name="uni0328" unicode="̨" d="M-5 -184q-23 -9 -62 -9q-45 0 -69 23.5t-24 59.5q0 58 60 110h85q-24 -18 -39.5 -42.5t-15.5 -42.5q0 -31 35 -31q17 0 30 3v-71z"/>
<glyph glyph-name="uni0335" unicode="̵" d="M-210 372v56h200v-56h-200z"/>
<glyph glyph-name="uni0336" unicode="̶" d="M-330 428h320v-56h-320v56z"/>
<glyph glyph-name="uni0337" unicode="̷" d="M-269 -44l159 596h103l-159 -596h-103z"/>
<glyph glyph-name="uni0338" unicode="̸" d="M-350 -38l213 776h101l-213 -776h-101z"/>
<glyph glyph-name="uni0401" horiz-adv-x="461" unicode="Ё" d="M171 95h252v-95h-353v700h343v-95h-242v-203h223v-93h-223v-214zM322 782q-23 0 -37 13.5t-14 35.5q0 23 14 36.5t37 13.5t36.5 -13.5t13.5 -36.5q0 -22 -13.5 -35.5t-36.5 -13.5zM176 782q-23 0 -36.5 13.5t-13.5 35.5q0 23 13.5 36.5t36.5 13.5t36.5 -13.5t13.5 -36.5 q0 -22 -13.5 -35.5t-36.5 -13.5z"/>
<glyph glyph-name="uni0402" horiz-adv-x="566" unicode="Ђ" d="M375 519q145 0 145 -219v-115q-1 -92 -48.5 -141.5t-137.5 -49.5v93q89 1 89 99v112q0 69 -18 99t-56 30q-40 0 -64.5 -30.5t-24.5 -83.5v-313h-103v604h-140v96h384v-96h-141v-148q41 63 115 63z"/>
<glyph glyph-name="uni0403" horiz-adv-x="422" unicode="Ѓ" d="M405 700v-96h-234v-604h-101v700h335zM353 893l-109 -125h-76l93 125h92z"/>
<glyph glyph-name="uni0404" horiz-adv-x="492" unicode="Є" d="M364 202h100q-5 -103 -59.5 -158.5t-151.5 -55.5q-94 0 -148.5 57t-54.5 161v288q0 105 54 162t148 57q96 0 150 -55.5t58 -159.5h-100q-9 119 -109 119q-46 0 -72 -31t-26 -92v-95h179v-87h-179v-106q0 -61 26.5 -91.5t73.5 -30.5q101 0 111 118z"/>
<glyph glyph-name="uni0405" horiz-adv-x="465" unicode="Ѕ" d="M231 -13q-94 0 -149 55t-56 150h103q1 -53 27.5 -80t74.5 -27q49 0 74.5 26t25.5 70q0 28 -16 52t-42 43t-57 37.5t-62.5 39.5t-57.5 45.5t-42 60t-16 77.5q0 77 52.5 127t139.5 50q89 0 141 -53t54 -143h-103q-1 49 -25 74t-66 25t-66 -22t-24 -60q0 -37 30.5 -67.5 t73.5 -54.5t86 -52t73.5 -74t30.5 -106q0 -82 -54.5 -137.5t-149.5 -55.5z"/>
<glyph glyph-name="uni0406" horiz-adv-x="240" unicode="І" d="M70 700h101v-700h-101v700z"/>
<glyph glyph-name="uni0407" horiz-adv-x="240" unicode="Ї" d="M70 700h101v-700h-101v700zM195 782q-23 0 -37 13.5t-14 35.5q0 23 14 36.5t37 13.5t36.5 -13.5t13.5 -36.5q0 -22 -13.5 -35.5t-36.5 -13.5zM49 782q-23 0 -36.5 13.5t-13.5 35.5q0 23 13.5 36.5t36.5 13.5t36.5 -13.5t13.5 -36.5q0 -22 -13.5 -35.5t-36.5 -13.5z"/>
<glyph glyph-name="uni0408" horiz-adv-x="284" unicode="Ј" d="M0 -116v99q59 0 87.5 29t28.5 100v588h101v-588q0 -111 -55.5 -169.5t-161.5 -58.5z"/>
<glyph glyph-name="uni0409" horiz-adv-x="752" unicode="Љ" d="M448 94h67q113 0 113 116q0 114 -113 114h-67v-230zM0 -10v93q34 0 52 23.5t26 76.5q13 81 30 517h340v-280h73q102 0 156.5 -56.5t54.5 -156.5q0 -101 -54.5 -154t-156.5 -53h-176v605h-142q-15 -351 -30 -447q-15 -93 -56 -130.5t-117 -37.5z"/>
<glyph glyph-name="uni040A" horiz-adv-x="781" unicode="Њ" d="M543 94q113 0 113 114q0 54 -29 82t-84 28h-77v-224h77zM548 414q103 0 158 -55.5t55 -150.5q0 -102 -54 -155t-159 -53h-183v317h-194v-317h-101v700h101v-288h194v288h101v-286h82z"/>
<glyph glyph-name="uni040B" horiz-adv-x="573" unicode="Ћ" d="M375 519q145 0 145 -219v-300h-97v298q0 69 -18 99t-56 30q-39 0 -63 -29.5t-26 -83.5v-314h-103v604h-140v96h384v-96h-141v-148q41 63 115 63z"/>
<glyph glyph-name="uni040C" horiz-adv-x="503" unicode="Ќ" d="M387 0l-171 306l-46 -69v-237h-100v700h100v-304l46 82l140 222h118l-200 -305l229 -395h-116zM352 893l-109 -125h-76l93 125h92z"/>
<glyph glyph-name="uni040D" horiz-adv-x="554" unicode="Ѝ" d="M70 0v700h99v-306q0 -106 -11 -202l3 -2q35 92 50 124l170 386h103v-700h-99v305q0 101 9 205l-3 2q-30 -83 -50 -129l-169 -383h-102zM342 768h-76l-109 125h92z"/>
<glyph glyph-name="uni040E" horiz-adv-x="436" unicode="Ў" d="M327 700h106l-170 -553q-27 -87 -69.5 -122t-121.5 -35h-25v91h28q40 0 61 22t37 76l8 26l-176 495h107l114 -341zM221 768q-53 0 -86 32t-35 88h69q3 -53 51 -53q49 0 52 53h69q-2 -57 -34.5 -88.5t-85.5 -31.5z"/>
<glyph glyph-name="uni040F" horiz-adv-x="539" unicode="Џ" d="M220 -117v117h-150v700h101v-604h198v604h101v-700h-151v-117h-99z"/>
<glyph glyph-name="uni0410" horiz-adv-x="476" unicode="А" d="M167 235h142l-44 188q-15 70 -26 150h-3q-13 -95 -26 -150zM363 0l-33 141h-185l-32 -141h-106l176 700h109l176 -700h-105z"/>
<glyph glyph-name="uni0411" horiz-adv-x="502" unicode="Б" d="M256 96q53 0 83 29.5t30 87.5q0 57 -30.5 87t-82.5 30h-85v-234h85zM262 424q99 0 154.5 -57t55.5 -154q0 -104 -54.5 -158.5t-155.5 -54.5h-192v700h364v-95h-263v-181h91z"/>
<glyph glyph-name="uni0412" horiz-adv-x="506" unicode="В" d="M257 95q112 0 112 105q0 53 -31 81t-85 28h-82v-214h86zM248 605h-77v-201h80q92 0 92 103q0 98 -95 98zM375 360q45 -19 71 -61t26 -99q0 -93 -55 -146.5t-147 -53.5h-200v700h190q85 0 135.5 -51.5t50.5 -138.5q0 -105 -71 -150z"/>
<glyph glyph-name="uni0413" horiz-adv-x="422" unicode="Г" d="M405 700v-96h-234v-604h-101v700h335z"/>
<glyph glyph-name="uni0414" horiz-adv-x="556" unicode="Д" d="M375 95v510h-142l-10 -271q-6 -152 -55 -239h207zM475 95h62v-212h-99v117h-333v-117h-99v212h41q72 73 79 267l12 338h337v-605z"/>
<glyph glyph-name="uni0415" horiz-adv-x="461" unicode="Е" d="M171 95h252v-95h-353v700h343v-95h-242v-203h223v-93h-223v-214z"/>
<glyph glyph-name="uni0416" horiz-adv-x="724" unicode="Ж" d="M610 0l-165 297l-34 -53v-244h-98v244l-34 53l-165 -297h-114l223 382l-206 318h116l132 -216l48 -87v303h98v-304l51 91l129 213h116l-206 -318l223 -382h-114z"/>
<glyph glyph-name="uni0417" horiz-adv-x="487" unicode="З" d="M335 363q121 -34 121 -169q0 -95 -60.5 -151t-155.5 -56q-97 0 -155.5 60.5t-63.5 152.5h102q3 -50 33 -83t83 -33q51 0 83 30.5t32 84.5q0 56 -34 86t-91 30h-53v90h44q116 0 116 110q0 48 -25.5 75t-71.5 27q-99 0 -106 -118h-100q5 99 58 157t148 58q91 0 145 -53.5 t54 -146.5q0 -113 -103 -151z"/>
<glyph glyph-name="uni0418" horiz-adv-x="554" unicode="И" d="M70 0v700h99v-306q0 -106 -11 -202l3 -2q35 92 50 124l170 386h103v-700h-99v305q0 101 9 205l-3 2q-30 -83 -50 -129l-169 -383h-102z"/>
<glyph glyph-name="uni0419" horiz-adv-x="554" unicode="Й" d="M70 0v700h99v-306q0 -106 -11 -202l3 -2q35 92 50 124l170 386h103v-700h-99v305q0 101 9 205l-3 2q-30 -83 -50 -129l-169 -383h-102zM280 768q-53 0 -86 32t-35 88h69q3 -53 51 -53q49 0 52 53h69q-2 -57 -34.5 -88.5t-85.5 -31.5z"/>
<glyph glyph-name="uni041A" horiz-adv-x="503" unicode="К" d="M387 0l-171 306l-46 -69v-237h-100v700h100v-304l46 82l140 222h118l-200 -305l229 -395h-116z"/>
<glyph glyph-name="uni041B" horiz-adv-x="525" unicode="Л" d="M109 700h346v-700h-101v605h-148q-17 -353 -32 -447q-13 -92 -55.5 -130t-118.5 -38v92q33 0 51 22.5t26 76.5q14 96 32 519z"/>
<glyph glyph-name="uni041C" horiz-adv-x="688" unicode="М" d="M515 700h103v-700h-99v273q4 147 8 226l-4 2q-20 -56 -68 -184l-61 -159h-100l-61 159q-48 128 -68 184l-4 -2q6 -146 8 -226v-273h-99v700h103l118 -284q23 -57 51 -139h4q28 82 51 139z"/>
<glyph glyph-name="uni041D" horiz-adv-x="540" unicode="Н" d="M369 700h101v-700h-101v307h-198v-307h-101v700h101v-298h198v298z"/>
<glyph glyph-name="uni041E" horiz-adv-x="528" unicode="О" d="M264 86q54 0 82 35t28 101v256q0 66 -28 101t-82 35q-110 0 -110 -136v-256q0 -136 110 -136zM264 -13q-100 0 -157 62.5t-57 172.5v256q0 110 57 172.5t157 62.5t157 -62.5t57 -172.5v-256q0 -110 -57 -172.5t-157 -62.5z"/>
<glyph glyph-name="uni041F" horiz-adv-x="539" unicode="П" d="M470 700v-700h-101v604h-198v-604h-101v700h400z"/>
<glyph glyph-name="uni0420" horiz-adv-x="501" unicode="Р" d="M254 342q113 0 113 132q0 130 -113 130h-83v-262h83zM255 700q103 0 159 -59.5t56 -166.5q0 -110 -56 -169t-159 -59h-84v-246h-101v700h185z"/>
<glyph glyph-name="uni0421" horiz-adv-x="492" unicode="С" d="M253 -12q-94 0 -148.5 57t-54.5 161v288q0 105 54 162t148 57q96 0 150 -55.5t58 -159.5h-100q-9 119 -109 119q-46 0 -72 -31t-26 -92v-288q0 -61 26.5 -91.5t73.5 -30.5q101 0 111 118h100q-5 -103 -59.5 -158.5t-151.5 -55.5z"/>
<glyph glyph-name="uni0422" horiz-adv-x="427" unicode="Т" d="M411 700v-96h-146v-604h-103v604h-145v96h394z"/>
<glyph glyph-name="uni0423" horiz-adv-x="436" unicode="У" d="M327 700h106l-170 -553q-27 -87 -69.5 -122t-121.5 -35h-25v91h28q40 0 61 22t37 76l8 26l-176 495h107l114 -341z"/>
<glyph glyph-name="uni0424" horiz-adv-x="668" unicode="Ф" d="M384 113h19q136 0 136 159v153q0 162 -136 162h-19v-474zM264 113h20v474h-20q-135 0 -135 -162v-153q0 -80 35.5 -119.5t99.5 -39.5zM284 -62v78h-16q-108 0 -174 67.5t-66 188.5v153q0 121 66 190t174 69h16v74h100v-74h16q108 0 174 -69t66 -190v-153 q0 -121 -66 -188.5t-174 -67.5h-16v-78h-100z"/>
<glyph glyph-name="uni0425" horiz-adv-x="476" unicode="Х" d="M461 0h-112l-110 259l-111 -259h-112l167 363l-157 337h111l102 -237l101 237h111l-157 -337z"/>
<glyph glyph-name="uni0426" horiz-adv-x="549" unicode="Ц" d="M431 -117v117h-361v700h101v-604h194v604h101v-604h64v-213h-99z"/>
<glyph glyph-name="uni0427" horiz-adv-x="509" unicode="Ч" d="M338 700h101v-702h-101v259q-44 -16 -95 -16q-96 0 -151 58.5t-55 164.5v236h101v-239q0 -125 116 -125q46 0 84 15v349z"/>
<glyph glyph-name="uni0428" horiz-adv-x="805" unicode="Ш" d="M70 0v700h100v-604h182v604h100v-604h183v604h100v-700h-665z"/>
<glyph glyph-name="uni0429" horiz-adv-x="815" unicode="Щ" d="M733 96h62v-213h-99v117h-626v700h100v-604h181v604h100v-604h182v604h100v-604z"/>
<glyph glyph-name="uni042A" horiz-adv-x="557" unicode="Ъ" d="M245 94h73q116 0 116 117q0 115 -116 115h-73v-232zM143 0v607h-128v93h230v-278h79q103 0 158 -57t55 -154q0 -104 -54 -157.5t-159 -53.5h-181z"/>
<glyph glyph-name="uni042B" horiz-adv-x="709" unicode="Ы" d="M173 94h66q112 0 112 116q0 56 -29 85t-83 29h-66v-230zM539 0v700h101v-700h-101zM70 0v700h103v-280h71q102 0 157 -56.5t55 -153.5q0 -103 -54 -156.5t-158 -53.5h-174z"/>
<glyph glyph-name="uni042C" horiz-adv-x="487" unicode="Ь" d="M171 93h81q53 0 82 29.5t29 87.5q0 57 -29 86t-82 29h-81v-232zM70 0v700h101v-279h86q100 0 155 -57t55 -154q0 -103 -54 -156.5t-156 -53.5h-187z"/>
<glyph glyph-name="uni042D" horiz-adv-x="492" unicode="Э" d="M240 713q94 0 148 -57t54 -162v-288q0 -104 -54.5 -161t-148.5 -57q-97 0 -151.5 55.5t-59.5 158.5h100q10 -118 111 -118q47 0 73.5 30.5t26.5 91.5v106h-179v87h179v95q0 61 -26 92t-72 31q-100 0 -109 -119h-100q4 104 58 159.5t150 55.5z"/>
<glyph glyph-name="uni042E" horiz-adv-x="756" unicode="Ю" d="M602 229v242q0 141 -108 141q-107 0 -107 -141v-242q0 -141 107 -141q108 0 108 141zM494 710q100 0 155.5 -63t55.5 -176v-242q0 -113 -55.5 -176t-155.5 -63t-155.5 63t-55.5 176v78h-113v-307h-100v700h100v-298h113v69q0 113 55.5 176t155.5 63z"/>
<glyph glyph-name="uni042F" horiz-adv-x="502" unicode="Я" d="M252 348h79v256h-78q-107 0 -107 -127q0 -62 27 -95.5t79 -33.5zM17 0l151 270q-60 20 -92.5 73.5t-32.5 131.5q0 107 55 166t154 59h180v-700h-101v253h-62l-140 -253h-112z"/>
<glyph glyph-name="uni0430" horiz-adv-x="454" unicode="а" d="M299 157v72h-77q-93 0 -93 -79q0 -36 22 -56.5t62 -20.5q39 0 62.5 23t23.5 61zM225 540q84 0 127.5 -49t43.5 -141v-350h-79l-7 49q-37 -62 -117 -62q-73 0 -117.5 44.5t-44.5 118.5q0 79 51 121t140 42h77v37q0 97 -76 97q-33 0 -54.5 -18t-25.5 -52h-97q4 76 52 119.5 t127 43.5z"/>
<glyph glyph-name="uni0431" horiz-adv-x="471" unicode="б" d="M327 188v99q0 109 -84 109q-39 0 -63 -25.5t-24 -79.5v-103q0 -105 85 -105q86 0 86 105zM261 490q74 0 119.5 -52t45.5 -145v-105q0 -95 -49.5 -147t-135.5 -52q-85 0 -134 52t-49 147v279q0 91 46.5 139.5t124.5 75.5q43 14 61.5 25.5t35.5 38.5l70 -57 q-35 -65 -123 -91q-26 -7 -42.5 -14t-36.5 -20.5t-30 -36t-10 -54.5v-27q39 44 107 44z"/>
<glyph glyph-name="uni0432" horiz-adv-x="430" unicode="в" d="M228 82q84 0 84 74q0 73 -84 73h-76v-147h76zM152 446v-135h59q75 0 75 68q0 31 -19.5 49t-56.5 18h-58zM323 280q42 -16 63.5 -50.5t21.5 -76.5q0 -73 -46.5 -113t-137.5 -40h-166v527h158q79 0 122 -38.5t43 -107.5q0 -63 -58 -101z"/>
<glyph glyph-name="uni0433" horiz-adv-x="346" unicode="г" d="M332 528v-93h-176v-435h-98v528h274z"/>
<glyph glyph-name="uni0434" horiz-adv-x="476" unicode="д" d="M150 89h158v349h-119q-2 -108 -8 -186q-8 -102 -31 -163zM0 -117v206h40q38 55 47 185q8 139 11 253h306v-438h60v-206h-93v117h-278v-117h-93z"/>
<glyph glyph-name="uni0435" horiz-adv-x="454" unicode="е" d="M227 449q-84 0 -84 -104v-45h171v45q0 104 -87 104zM320 165h97q-7 -84 -57 -130t-135 -46q-83 0 -131 52t-48 146v157q0 93 48 144.5t132 51.5q86 0 135 -51.5t49 -144.5v-117h-267v-40q0 -105 84 -105q43 0 64.5 19.5t28.5 63.5z"/>
<glyph glyph-name="uni0436" horiz-adv-x="632" unicode="ж" d="M526 0l-133 226l-30 -34v-192h-93v191l-31 35l-133 -226h-109l182 301l-163 226h113l78 -120q45 -72 63 -102v222h93v-222q18 30 63 102l78 120h113l-163 -226l181 -301h-109z"/>
<glyph glyph-name="uni0437" horiz-adv-x="419" unicode="з" d="M314 278q33 -15 55.5 -47.5t22.5 -74.5q0 -77 -50.5 -122.5t-134.5 -45.5q-85 0 -135 45t-54 121h93q3 -35 28 -55.5t68 -20.5q42 0 66 21.5t24 61.5q0 34 -23.5 53t-65.5 19h-67v75h64q36 0 56.5 18.5t20.5 52.5q0 32 -20 51t-56 19q-78 0 -84 -81h-94q5 81 50 125 t126 44q78 0 125 -42t47 -109q0 -74 -62 -108z"/>
<glyph glyph-name="uni0438" horiz-adv-x="467" unicode="и" d="M58 0v527h94v-222q0 -89 -2 -146l3 -2q12 39 55 149l102 221h99v-527h-94v202q0 82 5 170l-3 1q-4 -18 -24 -74.5t-35 -87.5l-101 -211h-99z"/>
<glyph glyph-name="uni0439" horiz-adv-x="467" unicode="й" d="M58 0v527h94v-222q0 -89 -2 -146l3 -2q12 39 55 149l102 221h99v-527h-94v202q0 82 5 170l-3 1q-4 -18 -24 -74.5t-35 -87.5l-101 -211h-99zM235 609q-53 0 -86 32t-35 88h69q3 -53 51 -53q49 0 52 53h69q-2 -57 -34.5 -88.5t-85.5 -31.5z"/>
<glyph glyph-name="uni043A" horiz-adv-x="441" unicode="к" d="M332 0l-143 226l-35 -38v-188h-96v527h96v-224l62 97l87 127h115l-166 -225l191 -302h-111z"/>
<glyph glyph-name="uni043B" horiz-adv-x="452" unicode="л" d="M0 -7v93q37 0 51 34t21 107q12 154 15 300h307v-527h-96v438h-118q-2 -113 -13 -227q-10 -111 -50 -164.5t-117 -53.5z"/>
<glyph glyph-name="uni043C" horiz-adv-x="556" unicode="м" d="M400 527h97v-527h-90v209q0 17 6 155l-5 1q-24 -80 -43 -132l-43 -102h-89l-43 102q-6 17 -13 39t-16 49.5t-14 43.5l-5 -1q6 -138 6 -155v-209h-90v527h97l81 -190q29 -70 40 -110h3q8 26 40 110z"/>
<glyph glyph-name="uni043D" horiz-adv-x="457" unicode="н" d="M302 527h97v-527h-97v225h-147v-225h-97v527h97v-212h147v212z"/>
<glyph glyph-name="uni043E" horiz-adv-x="463" unicode="о" d="M231 82q88 0 88 106v152q0 106 -88 106q-87 0 -87 -106v-152q0 -106 87 -106zM231 -12q-86 0 -135.5 52t-49.5 148v152q0 96 49.5 148t135.5 52q87 0 136.5 -52t49.5 -148v-152q0 -96 -49.5 -148t-136.5 -52z"/>
<glyph glyph-name="uni043F" horiz-adv-x="457" unicode="п" d="M399 527v-527h-97v438h-147v-438h-97v527h341z"/>
<glyph glyph-name="uni0440" horiz-adv-x="467" unicode="р" d="M323 190v145q0 113 -85 113q-39 0 -62 -28.5t-23 -83.5v-146q0 -52 22.5 -81.5t62.5 -29.5q85 0 85 111zM254 539q76 0 122 -54.5t46 -149.5v-145q0 -95 -45.5 -148.5t-122.5 -53.5q-61 0 -101 42v-210h-95v708h70l7 -49q20 26 52.5 43t66.5 17z"/>
<glyph glyph-name="uni0441" horiz-adv-x="437" unicode="с" d="M224 -11q-83 0 -130.5 50.5t-47.5 142.5v166q0 91 47.5 141.5t130.5 50.5q85 0 132.5 -50t50.5 -142h-98q-3 99 -84 99t-81 -99v-166q0 -100 81 -100q83 0 87 100h97q-2 -92 -51 -142.5t-134 -50.5z"/>
<glyph glyph-name="uni0442" horiz-adv-x="356" unicode="т" d="M347 527v-91h-121v-436h-96v436h-120v91h337z"/>
<glyph glyph-name="uni0443" horiz-adv-x="417" unicode="у" d="M313 527h100l-169 -568q-21 -72 -53.5 -110.5t-87.5 -38.5h-52v94h33q28 0 42 17.5t25 54.5l23 79l-170 472h102l109 -334z"/>
<glyph glyph-name="uni0444" horiz-adv-x="623" unicode="ф" d="M479 202v127q0 56 -27 84t-73 28h-21v-353h21q45 0 72.5 29t27.5 85zM244 88h20v353h-20q-46 0 -73 -28t-27 -84v-127q0 -56 27.5 -85t72.5 -29zM379 535q90 0 144 -54.5t54 -151.5v-127q0 -98 -54.5 -153.5t-143.5 -55.5h-21v-173h-94v173h-20q-89 0 -143.5 55.5 t-54.5 153.5v127q0 97 54 151.5t144 54.5h20v187h94v-187h21z"/>
<glyph glyph-name="uni0445" horiz-adv-x="407" unicode="х" d="M408 0h-110l-94 187l-95 -187h-110l146 264l-135 263h107l87 -179l86 179h107l-133 -263z"/>
<glyph glyph-name="uni0446" horiz-adv-x="474" unicode="ц" d="M363 -117v117h-305v527h97v-438h145v438h97v-438h60v-206h-94z"/>
<glyph glyph-name="uni0447" horiz-adv-x="432" unicode="ч" d="M282 527h92v-527h-92v184q-37 -19 -89 -19q-74 0 -119 53t-45 160v149h92v-149q0 -122 81 -122q51 0 80 19v252z"/>
<glyph glyph-name="uni0448" horiz-adv-x="682" unicode="ш" d="M528 527h95v-527h-570v527h95v-437h142v437h96v-437h142v437z"/>
<glyph glyph-name="uni0449" horiz-adv-x="705" unicode="щ" d="M629 88h59v-205h-92v117h-538v527h96v-437h142v437h96v-437h141v437h96v-439z"/>
<glyph glyph-name="uni044A" horiz-adv-x="480" unicode="ъ" d="M285 88q39 0 62.5 24t23.5 64q0 39 -23.5 62t-62.5 23h-73v-173h73zM294 349q76 0 125 -48t49 -125q0 -78 -49 -127t-125 -49h-179v438h-105v89h202v-178h82z"/>
<glyph glyph-name="uni044B" horiz-adv-x="632" unicode="ы" d="M228 88q39 0 62.5 23t23.5 63q0 38 -23.5 60t-62.5 22h-73v-168h73zM476 525h97v-525h-97v525zM238 344q76 0 125 -47.5t49 -123.5q0 -77 -49 -125t-125 -48h-180v525h97v-181h83z"/>
<glyph glyph-name="uni044C" horiz-adv-x="424" unicode="ь" d="M228 88q39 0 62.5 24t23.5 64q0 39 -23.5 62t-62.5 23h-73v-173h73zM238 349q76 0 125 -48t49 -125q0 -78 -49 -127t-125 -49h-180v527h97v-178h83z"/>
<glyph glyph-name="uni044D" horiz-adv-x="437" unicode="э" d="M213 540q83 0 130.5 -50.5t47.5 -141.5v-166q0 -92 -47.5 -142.5t-130.5 -50.5q-85 0 -134 49.5t-51 138.5h97q4 -95 87 -95q81 0 81 100v50h-158v69h158v47q0 99 -81 99t-84 -95h-98q3 90 50.5 139t132.5 49z"/>
<glyph glyph-name="uni044E" horiz-adv-x="634" unicode="ю" d="M492 189v152q0 105 -83 105q-84 0 -84 -105v-152q0 -106 84 -106q83 0 83 106zM409 540q84 0 132 -52t48 -147v-152q0 -96 -48 -148t-132 -52t-132 52t-48 148v34h-77v-223h-94v527h94v-213h77v27q0 95 48 147t132 52z"/>
<glyph glyph-name="uni044F" horiz-adv-x="418" unicode="я" d="M271 261v178h-64q-42 0 -64 -22.5t-22 -64.5q0 -91 84 -91h66zM203 527h162v-527h-94v178h-57l-95 -178h-110l112 192q-43 17 -69 59t-26 104q0 79 48.5 125.5t128.5 46.5z"/>
<glyph glyph-name="uni0451" horiz-adv-x="454" unicode="ё" d="M227 449q-84 0 -84 -104v-45h171v45q0 104 -87 104zM320 165h97q-7 -84 -57 -130t-135 -46q-83 0 -131 52t-48 146v157q0 93 48 144.5t132 51.5q86 0 135 -51.5t49 -144.5v-117h-267v-40q0 -105 84 -105q43 0 64.5 19.5t28.5 63.5zM291 620q-23 0 -37 13.5t-14 36.5 t14 36.5t37 13.5t36.5 -14t13.5 -36t-13.5 -36t-36.5 -14zM151 620q-23 0 -36.5 14t-13.5 36t13.5 36t36.5 14t36.5 -14t13.5 -36t-13.5 -36t-36.5 -14z"/>
<glyph glyph-name="uni0452" horiz-adv-x="469" unicode="ђ" d="M271 540q146 0 146 -219v-334q0 -88 -48.5 -137t-142.5 -50v93q94 1 94 90v335q0 69 -18.5 99.5t-56.5 30.5q-41 0 -65.5 -32t-24.5 -90v-326h-96v609h-64v55h64v60h96v-60h94v-55h-94v-133q43 64 116 64z"/>
<glyph glyph-name="uni0453" horiz-adv-x="346" unicode="ѓ" d="M332 528v-93h-176v-435h-98v528h274zM298 734l-89 -124h-76l75 124h90z"/>
<glyph glyph-name="uni0454" horiz-adv-x="437" unicode="є" d="M312 177h97q-2 -89 -51 -138.5t-134 -49.5q-83 0 -130.5 50.5t-47.5 142.5v166q0 91 47.5 141.5t130.5 50.5q85 0 132.5 -49t50.5 -139h-98q-3 95 -84 95t-81 -99v-47h158v-69h-158v-50q0 -100 81 -100q83 0 87 95z"/>
<glyph glyph-name="uni0455" horiz-adv-x="417" unicode="ѕ" d="M214 -13q-87 0 -137.5 49.5t-51.5 125.5h96q1 -38 24 -61.5t67 -23.5q38 0 59 17.5t21 48.5q0 25 -19 43t-48 28.5t-62.5 25.5t-62.5 31.5t-48 48t-19 73.5q0 67 46.5 107t123.5 40q82 0 127 -46t48 -122h-95q-2 80 -80 80q-34 0 -54 -16t-20 -44q0 -27 27 -45.5t65 -32 t76 -31t65 -53.5t27 -88q0 -70 -47 -112.5t-128 -42.5z"/>
<glyph glyph-name="uni0456" horiz-adv-x="213" unicode="і" d="M58 0v527h97v-527h-97zM106 615q-27 0 -44 17.5t-17 43.5q0 27 17 44.5t44 17.5t44.5 -17.5t17.5 -44.5q0 -26 -17.5 -43.5t-44.5 -17.5z"/>
<glyph glyph-name="uni0457" horiz-adv-x="232" unicode="ї" d="M67 0v527h97v-527h-97zM181 624q-22 0 -35.5 13t-13.5 35t13.5 35.5t35.5 13.5t35.5 -13.5t13.5 -35.5t-13.5 -35t-35.5 -13zM51 624q-22 0 -35 13t-13 35t13 35.5t35 13.5t35 -13.5t13 -35.5t-13 -35t-35 -13z"/>
<glyph glyph-name="uni0458" horiz-adv-x="246" unicode="ј" d="M-15 -193v93q49 1 71.5 25.5t22.5 74.5v527h96v-523q0 -94 -48 -145t-142 -52zM127 614q-27 0 -44 17t-17 44t17 44.5t44 17.5q26 0 43.5 -17.5t17.5 -44.5q0 -26 -17.5 -43.5t-43.5 -17.5z"/>
<glyph glyph-name="uni0459" horiz-adv-x="662" unicode="љ" d="M393 88h74q39 0 62.5 23t23.5 63q0 38 -23.5 60t-62.5 22h-74v-168zM0 -7v93q37 0 51.5 34.5t20.5 106.5q12 154 15 300h306v-183h83q76 0 125 -47.5t49 -123.5q0 -77 -49 -125t-125 -48h-178v438h-118q-2 -113 -13 -227q-10 -111 -50 -164.5t-117 -53.5z"/>
<glyph glyph-name="uni045A" horiz-adv-x="666" unicode="њ" d="M471 88q38 0 61.5 21.5t23.5 58.5q0 33 -23.5 52.5t-61.5 19.5h-73v-152h73zM480 328q76 0 125 -44.5t49 -115.5q0 -74 -49 -121t-125 -47h-179v238h-146v-238h-97v527h97v-199h146v199h97v-199h82z"/>
<glyph glyph-name="uni045B" horiz-adv-x="467" unicode="ћ" d="M269 540q146 0 146 -219v-321h-97v318q0 69 -18.5 99.5t-56.5 30.5q-41 0 -65.5 -32t-24.5 -90v-326h-96v605h-64v55h64v64h96v-64h94v-55h-94v-130q42 65 116 65z"/>
<glyph glyph-name="uni045C" horiz-adv-x="441" unicode="ќ" d="M332 0l-143 226l-35 -38v-188h-96v527h96v-224l62 97l87 127h115l-166 -225l191 -302h-111zM327 734l-89 -124h-76l75 124h90z"/>
<glyph glyph-name="uni045D" horiz-adv-x="467" unicode="ѝ" d="M58 0v527h94v-222q0 -89 -2 -146l3 -2q12 39 55 149l102 221h99v-527h-94v202q0 82 5 170l-3 1q-4 -18 -24 -74.5t-35 -87.5l-101 -211h-99zM133 734h90l75 -124h-76z"/>
<glyph glyph-name="uni045E" horiz-adv-x="417" unicode="ў" d="M313 527h100l-169 -568q-21 -72 -53.5 -110.5t-87.5 -38.5h-52v94h33q28 0 42 17.5t25 54.5l23 79l-170 472h102l109 -334zM208 611q-53 0 -86 32t-35 88h69q3 -53 51 -53q49 0 52 53h69q-2 -57 -34.5 -88.5t-85.5 -31.5z"/>
<glyph glyph-name="uni045F" horiz-adv-x="457" unicode="џ" d="M399 527v-527h-124v-117h-90v117h-127v527h97v-437h147v437h97z"/>
<glyph glyph-name="uni0490" horiz-adv-x="422" unicode="Ґ" d="M320 815h85v-211h-234v-604h-101v700h250v115z"/>
<glyph glyph-name="uni0491" horiz-adv-x="347" unicode="ґ" d="M251 627h82v-192h-177v-435h-98v527h193v100z"/>
<glyph glyph-name="Wgrave" horiz-adv-x="751" unicode="Ẁ" d="M639 700h105l-157 -700h-108l-68 309q-25 110 -33 225h-4q-11 -123 -34 -225l-68 -309h-108l-157 700h105l72 -383q29 -165 32 -186h4q8 56 32 191l70 367h107l70 -367q24 -135 32 -191h4q3 21 32 186zM445 768h-76l-109 125h92z"/>
<glyph glyph-name="wgrave" horiz-adv-x="636" unicode="ẁ" d="M532 527h100l-125 -527h-105l-46 191q-28 124 -36 208h-4q-7 -84 -36 -208l-45 -191h-105l-126 527h101l47 -236q19 -102 30 -181h4q12 87 33 185l48 222h103l48 -222q25 -130 33 -185h4q6 50 30 181zM380 608h-76l-89 124h90z"/>
<glyph glyph-name="Wacute" horiz-adv-x="751" unicode="Ẃ" d="M639 700h105l-157 -700h-108l-68 309q-25 110 -33 225h-4q-11 -123 -34 -225l-68 -309h-108l-157 700h105l72 -383q29 -165 32 -186h4q8 56 32 191l70 367h107l70 -367q24 -135 32 -191h4q3 21 32 186zM322 768l93 125h92l-109 -125h-76z"/>
<glyph glyph-name="wacute" horiz-adv-x="636" unicode="ẃ" d="M532 527h100l-125 -527h-105l-46 191q-28 124 -36 208h-4q-7 -84 -36 -208l-45 -191h-105l-126 527h101l47 -236q19 -102 30 -181h4q12 87 33 185l48 222h103l48 -222q25 -130 33 -185h4q6 50 30 181zM421 732l-89 -124h-76l75 124h90z"/>
<glyph glyph-name="Wdieresis" horiz-adv-x="751" unicode="Ẅ" d="M639 700h105l-157 -700h-108l-68 309q-25 110 -33 225h-4q-11 -123 -34 -225l-68 -309h-108l-157 700h105l72 -383q29 -165 32 -186h4q8 56 32 191l70 367h107l70 -367q24 -135 32 -191h4q3 21 32 186zM453 782q-23 0 -37 13.5t-14 35.5q0 23 14 36.5t37 13.5t36.5 -13.5 t13.5 -36.5q0 -22 -13.5 -35.5t-36.5 -13.5zM307 782q-23 0 -36.5 13.5t-13.5 35.5q0 23 13.5 36.5t36.5 13.5t36.5 -13.5t13.5 -36.5q0 -22 -13.5 -35.5t-36.5 -13.5z"/>
<glyph glyph-name="wdieresis" horiz-adv-x="636" unicode="ẅ" d="M532 527h100l-125 -527h-105l-46 191q-28 124 -36 208h-4q-7 -84 -36 -208l-45 -191h-105l-126 527h101l47 -236q19 -102 30 -181h4q12 87 33 185l48 222h103l48 -222q25 -130 33 -185h4q6 50 30 181zM385 620q-23 0 -37 13.5t-14 36.5t14 36.5t37 13.5t36.5 -14 t13.5 -36t-13.5 -36t-36.5 -14zM245 620q-23 0 -36.5 14t-13.5 36t13.5 36t36.5 14t36.5 -14t13.5 -36t-13.5 -36t-36.5 -14z"/>
<glyph glyph-name="Ygrave" horiz-adv-x="446" unicode="Ỳ" d="M173 0v230l-170 470h105l79 -233q25 -75 35 -110h2l36 112l78 231h106l-170 -470v-230h-101zM288 768h-76l-109 125h92z"/>
<glyph glyph-name="ygrave" horiz-adv-x="417" unicode="ỳ" d="M313 527h100l-169 -568q-21 -72 -53.5 -110.5t-87.5 -38.5h-52v94h33q28 0 42 17.5t25 54.5l23 79l-170 472h102l109 -334zM271 612h-76l-89 124h90z"/>
<glyph glyph-name="endash" horiz-adv-x="421" unicode="–" d="M38 214v86h345v-86h-345z"/>
<glyph glyph-name="emdash" horiz-adv-x="551" unicode="—" d="M38 300h475v-86h-475v86z"/>
<glyph glyph-name="quoteleft" horiz-adv-x="152" unicode="‘" d="M112 465h-96l57 235h60z"/>
<glyph glyph-name="quoteright" horiz-adv-x="152" unicode="’" d="M40 704h96l-57 -235h-60z"/>
<glyph glyph-name="quotesinglbase" horiz-adv-x="169" unicode="‚" d="M47 98h96l-57 -234h-60z"/>
<glyph glyph-name="quotedblleft" horiz-adv-x="282" unicode="“" d="M242 465h-97l57 235h60zM112 465h-96l57 235h60z"/>
<glyph glyph-name="quotedblright" horiz-adv-x="282" unicode="”" d="M169 700h96l-56 -235h-60zM40 700h96l-57 -235h-60z"/>
<glyph glyph-name="quotedblbase" horiz-adv-x="169" unicode="„" d="M47 98h96l-57 -234h-60z"/>
<glyph glyph-name="dagger" horiz-adv-x="370" unicode="†" d="M347 520v-87h-116v-528h-92v528h-116v87h116v190h92v-190h116z"/>
<glyph glyph-name="daggerdbl" horiz-adv-x="373" unicode="‡" d="M348 433h-116v-228h116v-88h-116v-212h-92v212h-116v88h116v228h-116v87h116v190h92v-190h116v-87z"/>
<glyph glyph-name="bullet" horiz-adv-x="207" unicode="•" d="M103 169q-37 0 -59.5 22.5t-22.5 59.5q0 36 22.5 58.5t59.5 22.5q36 0 58.5 -22.5t22.5 -58.5q0 -37 -22.5 -59.5t-58.5 -22.5z"/>
<glyph glyph-name="ellipsis" horiz-adv-x="543" unicode="…" d="M446 -10q-27 0 -44 16.5t-17 44.5q0 27 17 43.5t44 16.5t44 -16.5t17 -43.5q0 -28 -17 -44.5t-44 -16.5zM271 -10q-27 0 -43.5 16.5t-16.5 44.5q0 27 16.5 43.5t43.5 16.5q28 0 44.5 -16.5t16.5 -43.5q0 -28 -16.5 -44.5t-44.5 -16.5zM97 -10q-27 0 -44 16.5t-17 44.5 q0 27 17 43.5t44 16.5t44 -16.5t17 -43.5q0 -28 -17 -44.5t-44 -16.5z"/>
<glyph glyph-name="perthousand" horiz-adv-x="840" unicode="‰" d="M709 50q37 0 37 49v104q0 50 -37 50q-38 0 -38 -50v-104q0 -49 38 -49zM454 50q37 0 37 49v104q0 50 -37 50q-38 0 -38 -50v-104q0 -49 38 -49zM709 -9q-46 0 -74 28.5t-28 80.5v102q0 52 28 81t74 29q45 0 73 -29t28 -81v-102q0 -52 -27.5 -80.5t-73.5 -28.5zM454 -9 q-46 0 -74 28.5t-28 80.5v102q0 52 28 81t74 29q45 0 73 -29t28 -81v-102q0 -52 -27.5 -80.5t-73.5 -28.5zM121 448q38 0 38 50v103q0 51 -38 51t-38 -51v-103q0 -50 38 -50zM12 0l484 700h74l-484 -700h-74zM121 390q-46 0 -74 28.5t-28 80.5v101q0 52 28 81t74 29t74 -29 t28 -81v-101q0 -52 -28 -80.5t-74 -28.5z"/>
<glyph glyph-name="guilsinglleft" horiz-adv-x="289" unicode="‹" d="M155 87l-117 152v36l117 152h95l-129 -170l129 -170h-95z"/>
<glyph glyph-name="guilsinglright" horiz-adv-x="289" unicode="›" d="M134 87h-95l129 170l-129 170h95l117 -152v-36z"/>
<glyph glyph-name="fraction" horiz-adv-x="560" unicode="⁄" d="M11 0l455 700h83l-456 -700h-82z"/>
<glyph glyph-name="Euro" horiz-adv-x="555" unicode="€" d="M428 202h100q-5 -103 -60 -158.5t-151 -55.5q-94 0 -148.5 57t-54.5 161v58h-81v60h81v56h-81v60h81v54q0 105 53.5 162t147.5 57q96 0 150 -55.5t58 -159.5h-100q-7 119 -108 119q-46 0 -72 -31t-26 -92v-54h143v-60h-143v-56h143v-60h-143v-58q0 -61 26.5 -91.5 t73.5 -30.5q99 0 111 118z"/>
<glyph glyph-name="trademark" horiz-adv-x="472" unicode="™" d="M387 700h55v-271h-49v57q0 21 4 129l-3 1q-5 -14 -23 -65l-19 -54h-47l-19 54q-18 51 -23 65l-3 -1q4 -108 4 -129v-57h-49v271h55l26 -64q23 -52 32 -92q6 21 32 92zM24 652v48h161v-48h-55v-223h-50v223h-56z"/>
<glyph glyph-name="partialdiff" horiz-adv-x="458" unicode="∂" d="M314 189v120q0 106 -85 106t-85 -106v-120q0 -106 84 -106q86 0 86 106zM176 736q104 -29 169.5 -113t66.5 -221v-213q0 -96 -49 -148t-135 -52q-85 0 -133.5 52t-48.5 148v120q0 95 46 147.5t125 52.5q55 0 92 -30q-28 132 -167 178z"/>
<glyph glyph-name="emptyset" horiz-adv-x="801" unicode="∅" d="M669 350q0 117 -64 193l-346 -440q62 -34 140 -34q121 0 195.5 77.5t74.5 203.5zM128 350q0 -120 67 -195l347 440q-63 36 -143 36q-122 0 -196.5 -77t-74.5 -204zM754 732l-97 -123q95 -98 95 -259q0 -163 -97 -261.5t-256 -98.5q-109 0 -191 48l-55 -70h-105l95 121 q-97 97 -97 261q0 163 97 261.5t256 98.5q111 0 194 -50l57 72h104z"/>
<glyph glyph-name="product" horiz-adv-x="512" unicode="∏" d="M70 -99v799h372v-800h-99v704h-174v-703h-99z"/>
<glyph glyph-name="summation" horiz-adv-x="375" unicode="∑" d="M35 -2v82l151 270l-151 270v82h305v-90h-198l129 -233v-58l-129 -233h198v-90h-305z"/>
<glyph glyph-name="minus" horiz-adv-x="461" unicode="−" d="M43 265v90h374v-90h-374z"/>
<glyph glyph-name="radical" horiz-adv-x="487" unicode="√" d="M474 792l-152 -792h-139l-85 413h-85v87h163l76 -410l127 702h95z"/>
<glyph glyph-name="infinity" horiz-adv-x="627" unicode="∞" d="M434 181q26 0 42.5 19.5t16.5 51.5q0 35 -16.5 53.5t-42.5 18.5q-25 0 -41.5 -17.5t-29.5 -51.5q15 -37 30.5 -55.5t40.5 -18.5zM193 181q25 0 40.5 18t31.5 56q-29 69 -72 69q-27 0 -43 -18.5t-16 -53.5q0 -32 16.5 -51.5t42.5 -19.5zM439 409q60 0 101 -44t41 -114 q0 -69 -40.5 -112t-100.5 -43q-79 0 -126 75q-49 -75 -127 -75q-60 0 -100.5 43t-40.5 112q0 70 41 114t102 44q74 0 125 -67q49 67 125 67z"/>
<glyph glyph-name="integral" horiz-adv-x="323" unicode="∫" d="M24 -190v93q89 1 89 84v538q0 88 47.5 136.5t139.5 48.5v-92q-90 -1 -90 -84v-538q0 -88 -47.5 -136.5t-138.5 -49.5z"/>
<glyph glyph-name="approxequal" horiz-adv-x="470" unicode="≈" d="M381 269l48 -67q-40 -52 -100 -52q-35 0 -95 21t-85 21q-36 0 -60 -32l-48 68q41 51 100 51q35 0 95 -21t85 -21q34 0 60 32zM381 436l48 -66q-40 -52 -100 -52q-35 0 -95 20.5t-85 20.5q-36 0 -60 -31l-48 67q41 51 100 51q35 0 95 -20.5t85 -20.5q34 0 60 31z"/>
<glyph glyph-name="notequal" horiz-adv-x="470" unicode="≠" d="M422 365h-126l-37 -79h163v-90h-205l-33 -70h-85l33 70h-84v90h126l37 79h-163v90h205l33 71h85l-33 -71h84v-90z"/>
<glyph glyph-name="lessequal" horiz-adv-x="431" unicode="≤" d="M44 63v85h344v-85h-344zM388 552v-91l-246 -94l246 -95v-91l-344 137v97z"/>
<glyph glyph-name="greaterequal" horiz-adv-x="431" unicode="≥" d="M43 63v85h344v-85h-344zM43 552l344 -137v-97l-344 -137v91l246 95l-246 94v91z"/>
<glyph glyph-name="lozenge" horiz-adv-x="467" unicode="◊" d="M233 96l99 254l-99 254l-98 -254zM181 -1l-135 333v37l135 331h105l135 -331v-37l-135 -333h-105z"/>
<glyph glyph-name="uni0162.ss01" horiz-adv-x="427" d="M265 0h-24l-15 -47q3 1 12 1q29 -1 50 -20t21 -48q0 -37 -27.5 -58t-69.5 -21q-38 0 -65 20.5t-31 56.5h58q10 -26 39 -26q16 0 27 8t11 22q0 30 -34 30q-18 0 -35 -7l-18 18l21 71h-23v604h-145v96h394v-96h-146v-604z"/>
<glyph glyph-name="i.loclTRK" horiz-adv-x="213" d="M58 0v527h97v-527h-97zM106 615q-27 0 -44 17.5t-17 43.5q0 27 17 44.5t44 17.5t44.5 -17.5t17.5 -44.5q0 -26 -17.5 -43.5t-44.5 -17.5z"/>
<glyph glyph-name="uni0163.ss01" horiz-adv-x="316" d="M254 -6q-24 0 -40 4l-17 -45q2 1 12 1q29 0 49.5 -19.5t20.5 -48.5q0 -37 -27 -58t-70 -21q-38 0 -64.5 20.5t-30.5 56.5h57q10 -26 39 -26q17 0 27.5 8t10.5 22q0 30 -34 30q-18 0 -34 -7l-18 18l29 86q-77 44 -77 155v268h-74v89h74v125h96v-125h98v-89h-98v-269 q0 -85 76 -85h32v-90h-37z"/>
<glyph glyph-name="uni0414.loclBGR" horiz-adv-x="513" d="M155 95h204l-64 279q-15 75 -37 201h-3q-19 -119 -36 -200zM0 -117v212h53l150 605h107l150 -605h53v-212h-100v117h-314v-117h-99z"/>
<glyph glyph-name="uni041B.loclBGR" horiz-adv-x="469" d="M179 700h110l172 -700h-105l-85 386q-12 57 -35 186h-4q-26 -148 -35 -186l-84 -386h-106z"/>
<glyph glyph-name="hacy.001" horiz-adv-x="407" d="M408 0h-110l-94 187l-95 -187h-110l146 264l-135 263h107l87 -179l86 179h107l-133 -263z"/>
<glyph glyph-name="uni0432.loclBGR" horiz-adv-x="456" d="M226 82q98 0 98 123q0 124 -101 124h-13l-63 -4v-135q0 -108 79 -108zM222 642q-35 0 -55 -27t-20 -78v-123l47 4q50 4 77.5 37t27.5 89q0 98 -77 98zM312 393q109 -42 109 -186q0 -103 -53 -160.5t-142 -57.5q-84 0 -129 53.5t-45 159.5v335q0 92 46.5 145t127.5 53 q79 0 124 -49t45 -133q0 -113 -83 -160z"/>
<glyph glyph-name="uni0433.loclBGR" horiz-adv-x="415" d="M204 -12q-82 0 -129.5 41.5t-47.5 112.5q0 50 26 85t63.5 53t75 32.5t63.5 34t26 46.5q0 58 -69 58q-76 0 -79 -78h-94q3 75 47.5 121t125.5 46q77 0 121.5 -39t44.5 -108q0 -49 -26 -83t-63 -52t-74.5 -33t-63.5 -34.5t-26 -47.5q0 -30 22 -47t59 -17q84 0 87 83h97 q-2 -76 -51.5 -125t-134.5 -49z"/>
<glyph glyph-name="uni0434.loclBGR" horiz-adv-x="470" d="M231 113q83 0 83 101v132q0 49 -23 75t-60 26q-87 0 -87 -107v-126q0 -101 87 -101zM341 527h71v-554q0 -75 -48 -120.5t-129 -45.5q-79 0 -126 44.5t-50 119.5h95q6 -74 81 -74q37 0 58 20.5t21 55.5v82q-40 -34 -99 -34q-75 0 -122 53t-47 140v126q0 92 46.5 146 t121.5 54t119 -55z"/>
<glyph glyph-name="uni0436.loclBGR" horiz-adv-x="630" d="M523 0l-131 230l-31 -34v-196h-93v197l-30 33l-132 -230h-109l179 305l-160 222h112l101 -151l39 -65v412h93v-413l39 66l102 151h112l-160 -222l178 -305h-109z"/>
<glyph glyph-name="uni0437.loclBGR" horiz-adv-x="443" d="M303 190q103 -40 103 -177q0 -97 -51.5 -151t-144.5 -54q-86 0 -135 50t-53 145h94q6 -103 96 -103q47 0 71.5 30.5t24.5 87.5q0 59 -28 91t-80 32h-58v88h49q49 0 75.5 30t26.5 87q0 49 -22 76.5t-62 27.5q-77 0 -85 -100h-94q4 92 51.5 141t130.5 49t129 -49.5 t46 -138.5q0 -60 -18 -98.5t-66 -63.5z"/>
<glyph glyph-name="uni0438.loclBGR" horiz-adv-x="469" d="M314 527h97v-527h-69l-10 59q-43 -72 -131 -72q-70 0 -109 52t-39 157v331h97v-326q0 -64 18 -93t56 -29q42 0 66 32t24 90v326z"/>
<glyph glyph-name="uni0439.loclBGR" horiz-adv-x="469" d="M314 527h97v-527h-69l-10 59q-43 -72 -131 -72q-70 0 -109 52t-39 157v331h97v-326q0 -64 18 -93t56 -29q42 0 66 32t24 90v326zM230 609q-53 0 -86 32t-35 88h69q3 -53 51 -53q49 0 52 53h69q-2 -57 -34.5 -88.5t-85.5 -31.5z"/>
<glyph glyph-name="uni045D.loclBGR" horiz-adv-x="474" d="M320 527h97v-527h-69l-10 59q-43 -72 -131 -72q-70 0 -109 52t-39 157v331h97v-326q0 -64 18 -93t56 -29q42 0 66 32t24 90v326zM278 610h-76l-89 124h90z"/>
<glyph glyph-name="uni043A.loclBGR" horiz-adv-x="441" d="M333 0l-140 241l-39 -42v-199h-96v724h96v-403l150 206h115l-162 -211l187 -316h-111z"/>
<glyph glyph-name="uni043B.loclBGR" horiz-adv-x="406" d="M300 0l-58 237q-28 131 -36 174h-5q-8 -43 -36 -174l-58 -237h-103l145 527h108l145 -527h-102z"/>
<glyph glyph-name="uni043F.loclBGR" horiz-adv-x="469" d="M268 540q70 0 109 -52t39 -157v-331h-97v326q0 64 -18 93t-56 29q-42 0 -66 -32t-24 -90v-326h-97v527h69l10 -59q43 72 131 72z"/>
<glyph glyph-name="uni0442.loclBGR" horiz-adv-x="716" d="M519 540q68 0 106 -53t38 -157v-330h-96v327q0 121 -70 121q-40 0 -64 -32t-24 -90v-326h-96v327q0 121 -72 121q-40 0 -63.5 -32t-23.5 -90v-326h-96v527h69l10 -59q42 72 126 72q86 0 123 -80q41 80 133 80z"/>
<glyph glyph-name="uni0446.loclBGR" horiz-adv-x="487" d="M377 -117v117q-37 14 -46 63q-41 -75 -131 -75q-147 0 -147 209v330h97v-326q0 -64 17.5 -92.5t55.5 -28.5q42 0 66 32t24 89v326h97v-373q0 -41 12.5 -57t47.5 -16v-198h-93z"/>
<glyph glyph-name="uni0448.loclBGR" horiz-adv-x="716" d="M562 527h96v-527h-69l-10 59q-42 -72 -126 -72q-86 0 -123 80q-41 -80 -133 -80q-68 0 -106 53t-38 157v330h96v-327q0 -121 70 -121q40 0 64 32t24 90v326h96v-327q0 -121 72 -121q40 0 63.5 32t23.5 90v326z"/>
<glyph glyph-name="uni0449.loclBGR" horiz-adv-x="735" d="M657 154q0 -41 13 -57t48 -16v-198h-93v117q-37 15 -46 64q-38 -76 -126 -76q-87 0 -122 81q-41 -81 -134 -81q-68 0 -106 53t-38 157v329h96v-327q0 -120 70 -120q41 0 64.5 32t23.5 89v326h96v-327q0 -120 72 -120q40 0 63 32t23 89v326h96v-373z"/>
<glyph glyph-name="uni044C.loclBGR" horiz-adv-x="424" d="M230 79q84 0 84 102q0 96 -83 96q-39 0 -60.5 -25t-21.5 -72q0 -101 81 -101zM245 367h2q74 0 119.5 -51t45.5 -135q0 -89 -50 -141.5t-132 -52.5t-129.5 48t-47.5 130v362h96v-198q40 38 96 38z"/>
<glyph glyph-name="uni044A.loclBGR" horiz-adv-x="481" d="M288 79q83 0 83 102q0 96 -83 96q-39 0 -60.5 -25t-21.5 -72q0 -101 82 -101zM303 367h2q74 0 119 -51t45 -135q0 -89 -49.5 -141.5t-131.5 -52.5t-130 48t-48 130v273h-105v89h201v-198q40 38 97 38z"/>
<glyph glyph-name="uni044E.loclBGR" horiz-adv-x="633" d="M490 189v149q0 105 -83 105q-84 0 -84 -105v-149q0 -106 84 -106q83 0 83 106zM407 537q84 0 132 -52t48 -147v-149q0 -96 -48 -148t-132 -52t-132 52t-48 148v34h-77v-223h-94v722h94v-408h77v24q0 95 48 147t132 52z"/>
<glyph glyph-name="emdash.case" horiz-adv-x="551" d="M38 400h475v-86h-475v86z"/>
<glyph glyph-name="endash.case" horiz-adv-x="421" d="M38 314v86h345v-86h-345z"/>
<glyph glyph-name="hyphen.case" horiz-adv-x="321" d="M38 314v86h245v-86h-245z"/>
<glyph glyph-name="guillemotleft.case" horiz-adv-x="469" d="M335 147l-117 152v36l117 152h95l-129 -170l129 -170h-95zM155 147l-117 152v36l117 152h95l-129 -170l129 -170h-95z"/>
<glyph glyph-name="guillemotright.case" horiz-adv-x="469" d="M314 147h-95l129 170l-129 170h95l117 -152v-36zM134 147h-95l129 170l-129 170h95l117 -152v-36z"/>
<glyph glyph-name="guilsinglleft.case" horiz-adv-x="289" d="M155 147l-117 152v36l117 152h95l-129 -170l129 -170h-95z"/>
<glyph glyph-name="guilsinglright.case" horiz-adv-x="289" d="M134 147h-95l129 170l-129 170h95l117 -152v-36z"/>
<glyph glyph-name="uni0308.case" d="M-47 782q-23 0 -37 13.5t-14 35.5q0 23 14 36.5t37 13.5t36.5 -13.5t13.5 -36.5q0 -22 -13.5 -35.5t-36.5 -13.5zM-193 782q-23 0 -36.5 13.5t-13.5 35.5q0 23 13.5 36.5t36.5 13.5t36.5 -13.5t13.5 -36.5q0 -22 -13.5 -35.5t-36.5 -13.5z"/>
<glyph glyph-name="uni0307.case" d="M-58 778q-28 0 -45 17.5t-17 44.5q0 26 17 43.5t45 17.5q26 0 43.5 -17.5t17.5 -43.5t-17.5 -44t-43.5 -18z"/>
<glyph glyph-name="gravecomb.case" d="M-5 768h-76l-109 125h92z"/>
<glyph glyph-name="acutecomb.case" d="M-185 768l93 125h92l-109 -125h-76z"/>
<glyph glyph-name="uni030B.case" d="M9 893l-92 -124h-69l77 124h84zM-119 893l-87 -124h-69l72 124h84z"/>
<glyph glyph-name="uni0302.case" d="M-2 768h-72l-50 70l-51 -70h-72l81 125h83z"/>
<glyph glyph-name="uni030C.case" d="M-76 893h72l-81 -125h-83l-81 125h72l51 -70z"/>
<glyph glyph-name="uni0306.case" d="M-117 768q-53 0 -86 32t-35 88h69q3 -53 51 -53q49 0 52 53h69q-2 -57 -34.5 -88.5t-85.5 -31.5z"/>
<glyph glyph-name="uni030A.case" d="M-109 842q0 -14 9 -23t23 -9t23 9t9 23t-9 23t-23 9t-23 -9t-9 -23zM-157 843q0 35 22 56t58 21q37 0 59 -21t22 -56t-22 -57t-59 -22q-36 0 -58 22t-22 57z"/>
<glyph glyph-name="tildecomb.case" d="M-146 818q-20 0 -24 -27h-65q2 43 23.5 67.5t55.5 24.5q24 0 47 -15t31 -15q21 0 26 27h63q-4 -43 -25 -67.5t-54 -24.5q-23 0 -46 15t-32 15z"/>
<glyph glyph-name="uni0304.case" d="M-197 862h202v-69h-202v69z"/>
<glyph glyph-name="uni0312.case" d="M-59 972l50 -196h-96l-17 196h63z"/>
<glyph glyph-name="uni0326.case" d="M-112 -265l17 195h88l-43 -195h-62z"/>
<glyph glyph-name="uni0327.case" d="M-100 -206q-39 0 -67 22.5t-32 59.5h60q10 -27 40 -27q39 0 39 34q0 32 -36 32q-19 0 -33 -8l-19 18l22 75h57l-14 -49q3 1 12 1q31 0 51.5 -19.5t20.5 -51.5q0 -40 -28 -63.5t-73 -23.5z"/>
<glyph glyph-name="uni0328.case" d="M-2 -184q-23 -9 -62 -9q-45 0 -69 23.5t-24 59.5q0 58 60 110h85q-24 -18 -39.5 -42.5t-15.5 -42.5q0 -31 35 -31q16 0 30 3v-71z"/>
<glyph glyph-name="uni0337.case" d="M-265 -44l159 596h103l-159 -596h-103z"/>
<glyph glyph-name="uni0338.case" d="M-477 -38l213 776h101l-213 -776h-101z"/>
<glyph glyph-name="brevecombcy" d="M-118 609q-53 0 -86 32t-35 88h69q3 -53 51 -53q49 0 52 53h69q-2 -57 -34.5 -88.5t-85.5 -31.5z"/>
<glyph glyph-name="brevecombcy.case" d="M-117 768q-53 0 -86 32t-35 88h69q3 -53 51 -53q49 0 52 53h69q-2 -57 -34.5 -88.5t-85.5 -31.5z"/>
</font>
</defs>
</svg>
